<?xml version="1.0" encoding="utf-8" standalone="no"?>
<!DOCTYPE svg PUBLIC "-//W3C//DTD SVG 1.1//EN"
  "http://www.w3.org/Graphics/SVG/1.1/DTD/svg11.dtd">
<svg xmlns:xlink="http://www.w3.org/1999/xlink" width="453.6pt" height="288pt" viewBox="0 0 453.6 288" xmlns="http://www.w3.org/2000/svg" version="1.1">
 <defs>
  <style type="text/css">*{stroke-linejoin: round; stroke-linecap: butt}</style>
 </defs>
 <g id="figure_1">
  <g id="patch_1">
   <path d="M 0 288
L 453.6 288
L 453.6 0
L 0 0
z
" style="fill: #ffffff"/>
  </g>
  <g id="axes_1">
   <g id="patch_2">
    <path d="M 37.282584 254.99976
L 383.132779 254.99976
L 383.132779 3.00024
L 37.282584 3.00024
z
" style="fill: #ffffff"/>
   </g>
   <g id="patch_3">
    <path d="M 37.282584 3.00024
L 123.745133 3.00024
L 123.745133 53.400144
L 37.282584 53.400144
z
" clip-path="url(#pa063c7dbb3)" style="fill: #440154"/>
   </g>
   <g id="patch_4">
    <path d="M 123.745133 3.00024
L 210.207681 3.00024
L 210.207681 53.400144
L 123.745133 53.400144
z
" clip-path="url(#pa063c7dbb3)" style="fill: #482677"/>
   </g>
   <g id="patch_5">
    <path d="M 210.207681 3.00024
L 296.67023 3.00024
L 296.67023 53.400144
L 210.207681 53.400144
z
" clip-path="url(#pa063c7dbb3)" style="fill: #287d8e"/>
   </g>
   <g id="patch_6">
    <path d="M 296.67023 3.00024
L 383.132779 3.00024
L 383.132779 53.400144
L 296.67023 53.400144
z
" clip-path="url(#pa063c7dbb3)" style="fill: #2b748e"/>
   </g>
   <g id="patch_7">
    <path d="M 37.282584 53.400144
L 123.745133 53.400144
L 123.745133 103.800048
L 37.282584 103.800048
z
" clip-path="url(#pa063c7dbb3)" style="fill: #450457"/>
   </g>
   <g id="patch_8">
    <path d="M 123.745133 53.400144
L 210.207681 53.400144
L 210.207681 103.800048
L 123.745133 103.800048
z
" clip-path="url(#pa063c7dbb3)" style="fill: #34618d"/>
   </g>
   <g id="patch_9">
    <path d="M 210.207681 53.400144
L 296.67023 53.400144
L 296.67023 103.800048
L 210.207681 103.800048
z
" clip-path="url(#pa063c7dbb3)" style="fill: #297a8e"/>
   </g>
   <g id="patch_10">
    <path d="M 296.67023 53.400144
L 383.132779 53.400144
L 383.132779 103.800048
L 296.67023 103.800048
z
" clip-path="url(#pa063c7dbb3)" style="fill: #2e6e8e"/>
   </g>
   <g id="patch_11">
    <path d="M 37.282584 103.800048
L 123.745133 103.800048
L 123.745133 154.199952
L 37.282584 154.199952
z
" clip-path="url(#pa063c7dbb3)" style="fill: #450457"/>
   </g>
   <g id="patch_12">
    <path d="M 123.745133 103.800048
L 210.207681 103.800048
L 210.207681 154.199952
L 123.745133 154.199952
z
" clip-path="url(#pa063c7dbb3)" style="fill: #2b758e"/>
   </g>
   <g id="patch_13">
    <path d="M 210.207681 103.800048
L 296.67023 103.800048
L 296.67023 154.199952
L 210.207681 154.199952
z
" clip-path="url(#pa063c7dbb3)" style="fill: #1e9b8a"/>
   </g>
   <g id="patch_14">
    <path d="M 296.67023 103.800048
L 383.132779 103.800048
L 383.132779 154.199952
L 296.67023 154.199952
z
" clip-path="url(#pa063c7dbb3)" style="fill: #1f9f88"/>
   </g>
   <g id="patch_15">
    <path d="M 37.282584 154.199952
L 123.745133 154.199952
L 123.745133 204.599856
L 37.282584 204.599856
z
" clip-path="url(#pa063c7dbb3)" style="fill: #482677"/>
   </g>
   <g id="patch_16">
    <path d="M 123.745133 154.199952
L 210.207681 154.199952
L 210.207681 204.599856
L 123.745133 204.599856
z
" clip-path="url(#pa063c7dbb3)" style="fill: #1f9e89"/>
   </g>
   <g id="patch_17">
    <path d="M 210.207681 154.199952
L 296.67023 154.199952
L 296.67023 204.599856
L 210.207681 204.599856
z
" clip-path="url(#pa063c7dbb3)" style="fill: #46c06f"/>
   </g>
   <g id="patch_18">
    <path d="M 296.67023 154.199952
L 383.132779 154.199952
L 383.132779 204.599856
L 296.67023 204.599856
z
" clip-path="url(#pa063c7dbb3)" style="fill: #6ccd5a"/>
   </g>
   <g id="patch_19">
    <path d="M 37.282584 204.599856
L 123.745133 204.599856
L 123.745133 254.99976
L 37.282584 254.99976
z
" clip-path="url(#pa063c7dbb3)" style="fill: #3a538b"/>
   </g>
   <g id="patch_20">
    <path d="M 123.745133 204.599856
L 210.207681 204.599856
L 210.207681 254.99976
L 123.745133 254.99976
z
" clip-path="url(#pa063c7dbb3)" style="fill: #77d153"/>
   </g>
   <g id="patch_21">
    <path d="M 210.207681 204.599856
L 296.67023 204.599856
L 296.67023 254.99976
L 210.207681 254.99976
z
" clip-path="url(#pa063c7dbb3)" style="fill: #fde725"/>
   </g>
   <g id="patch_22">
    <path d="M 296.67023 204.599856
L 383.132779 204.599856
L 383.132779 254.99976
L 296.67023 254.99976
z
" clip-path="url(#pa063c7dbb3)" style="fill: #b0dd2f"/>
   </g>
   <g id="patch_23">
    <path d="M 296.67023 204.599856
L 383.132779 204.599856
L 383.132779 254.99976
L 296.67023 254.99976
L 296.67023 204.599856
z
" clip-path="url(#pa063c7dbb3)" style="fill: none; stroke: #d55e00; stroke-width: 1.8; stroke-linejoin: miter"/>
   </g>
   <g id="matplotlib.axis_1">
    <g id="xtick_1">
     <g id="line2d_1">
      <defs>
       <path id="m8ee449673c" d="M 0 0
L 0 3.5
" style="stroke: #000000; stroke-width: 0.8"/>
      </defs>
      <g>
       <use xlink:href="#m8ee449673c" x="80.513858" y="254.99976" style="stroke: #000000; stroke-width: 0.8"/>
      </g>
     </g>
     <g id="text_1">
      <text style="font-size: 9px; font-family: 'Noto Sans SC', 'Arial', 'Helvetica', 'DejaVu Sans', sans-serif; text-anchor: middle" x="80.513858" y="269.91976" transform="rotate(-0 80.513858 269.91976)">0.5</text>
     </g>
    </g>
    <g id="xtick_2">
     <g id="line2d_2">
      <g>
       <use xlink:href="#m8ee449673c" x="166.976407" y="254.99976" style="stroke: #000000; stroke-width: 0.8"/>
      </g>
     </g>
     <g id="text_2">
      <text style="font-size: 9px; font-family: 'Noto Sans SC', 'Arial', 'Helvetica', 'DejaVu Sans', sans-serif; text-anchor: middle" x="166.976407" y="269.91976" transform="rotate(-0 166.976407 269.91976)">1</text>
     </g>
    </g>
    <g id="xtick_3">
     <g id="line2d_3">
      <g>
       <use xlink:href="#m8ee449673c" x="253.438956" y="254.99976" style="stroke: #000000; stroke-width: 0.8"/>
      </g>
     </g>
     <g id="text_3">
      <text style="font-size: 9px; font-family: 'Noto Sans SC', 'Arial', 'Helvetica', 'DejaVu Sans', sans-serif; text-anchor: middle" x="253.438956" y="269.91976" transform="rotate(-0 253.438956 269.91976)">1.5</text>
     </g>
    </g>
    <g id="xtick_4">
     <g id="line2d_4">
      <g>
       <use xlink:href="#m8ee449673c" x="339.901504" y="254.99976" style="stroke: #000000; stroke-width: 0.8"/>
      </g>
     </g>
     <g id="text_4">
      <text style="font-size: 9px; font-family: 'Noto Sans SC', 'Arial', 'Helvetica', 'DejaVu Sans', sans-serif; text-anchor: middle" x="339.901504" y="269.91976" transform="rotate(-0 339.901504 269.91976)">2</text>
     </g>
    </g>
    <g id="text_5">
     <text style="font-size: 10px; font-family: 'Noto Sans SC', 'Arial', 'Helvetica', 'DejaVu Sans', sans-serif; text-anchor: middle" x="210.207681" y="283.79976" transform="rotate(-0 210.207681 283.79976)">允许绕行阈值 δ（min）</text>
    </g>
   </g>
   <g id="matplotlib.axis_2">
    <g id="ytick_1">
     <g id="line2d_5">
      <defs>
       <path id="maa7b6a6cdc" d="M 0 0
L -3.5 0
" style="stroke: #000000; stroke-width: 0.8"/>
      </defs>
      <g>
       <use xlink:href="#maa7b6a6cdc" x="37.282584" y="28.200192" style="stroke: #000000; stroke-width: 0.8"/>
      </g>
     </g>
     <g id="text_6">
      <text style="font-size: 9px; font-family: 'Noto Sans SC', 'Arial', 'Helvetica', 'DejaVu Sans', sans-serif; text-anchor: end" x="30.282584" y="32.160192" transform="rotate(-0 30.282584 32.160192)">0</text>
     </g>
    </g>
    <g id="ytick_2">
     <g id="line2d_6">
      <g>
       <use xlink:href="#maa7b6a6cdc" x="37.282584" y="78.600096" style="stroke: #000000; stroke-width: 0.8"/>
      </g>
     </g>
     <g id="text_7">
      <text style="font-size: 9px; font-family: 'Noto Sans SC', 'Arial', 'Helvetica', 'DejaVu Sans', sans-serif; text-anchor: end" x="30.282584" y="82.560096" transform="rotate(-0 30.282584 82.560096)">0.5</text>
     </g>
    </g>
    <g id="ytick_3">
     <g id="line2d_7">
      <g>
       <use xlink:href="#maa7b6a6cdc" x="37.282584" y="129" style="stroke: #000000; stroke-width: 0.8"/>
      </g>
     </g>
     <g id="text_8">
      <text style="font-size: 9px; font-family: 'Noto Sans SC', 'Arial', 'Helvetica', 'DejaVu Sans', sans-serif; text-anchor: end" x="30.282584" y="132.96" transform="rotate(-0 30.282584 132.96)">1</text>
     </g>
    </g>
    <g id="ytick_4">
     <g id="line2d_8">
      <g>
       <use xlink:href="#maa7b6a6cdc" x="37.282584" y="179.399904" style="stroke: #000000; stroke-width: 0.8"/>
      </g>
     </g>
     <g id="text_9">
      <text style="font-size: 9px; font-family: 'Noto Sans SC', 'Arial', 'Helvetica', 'DejaVu Sans', sans-serif; text-anchor: end" x="30.282584" y="183.359904" transform="rotate(-0 30.282584 183.359904)">2</text>
     </g>
    </g>
    <g id="ytick_5">
     <g id="line2d_9">
      <g>
       <use xlink:href="#maa7b6a6cdc" x="37.282584" y="229.799808" style="stroke: #000000; stroke-width: 0.8"/>
      </g>
     </g>
     <g id="text_10">
      <text style="font-size: 9px; font-family: 'Noto Sans SC', 'Arial', 'Helvetica', 'DejaVu Sans', sans-serif; text-anchor: end" x="30.282584" y="233.759808" transform="rotate(-0 30.282584 233.759808)">4</text>
     </g>
    </g>
    <g id="text_11">
     <text style="font-size: 10px; font-family: 'Noto Sans SC', 'Arial', 'Helvetica', 'DejaVu Sans', sans-serif; text-anchor: middle" x="11.80024" y="129" transform="rotate(-90 11.80024 129)">负荷权重 β（min）</text>
    </g>
   </g>
   <g id="patch_24">
    <path d="M 37.282584 254.99976
L 37.282584 3.00024
" style="fill: none; stroke: #000000; stroke-width: 0.8; stroke-linejoin: miter; stroke-linecap: square"/>
   </g>
   <g id="patch_25">
    <path d="M 37.282584 254.99976
L 383.132779 254.99976
" style="fill: none; stroke: #000000; stroke-width: 0.8; stroke-linejoin: miter; stroke-linecap: square"/>
   </g>
  </g>
  <g id="axes_2">
   <g id="patch_26">
    <path d="M 400.425289 236.099796
L 411.135268 236.099796
L 411.135268 21.900204
L 400.425289 21.900204
z
" style="fill: #ffffff"/>
   </g>
   <g id="QuadMesh_1">
    <path d="M 400.425289 236.099796
L 411.135268 236.099796
L 411.135268 235.263079
L 400.425289 235.263079
L 400.425289 236.099796
" clip-path="url(#p2533bac91a)" style="fill: #fde725"/>
    <path d="M 400.425289 235.263079
L 411.135268 235.263079
L 411.135268 234.426362
L 400.425289 234.426362
L 400.425289 235.263079
" clip-path="url(#p2533bac91a)" style="fill: #fbe723"/>
    <path d="M 400.425289 234.426362
L 411.135268 234.426362
L 411.135268 233.589645
L 400.425289 233.589645
L 400.425289 234.426362
" clip-path="url(#p2533bac91a)" style="fill: #f8e621"/>
    <path d="M 400.425289 233.589645
L 411.135268 233.589645
L 411.135268 232.752927
L 400.425289 232.752927
L 400.425289 233.589645
" clip-path="url(#p2533bac91a)" style="fill: #f6e620"/>
    <path d="M 400.425289 232.752927
L 411.135268 232.752927
L 411.135268 231.91621
L 400.425289 231.91621
L 400.425289 232.752927
" clip-path="url(#p2533bac91a)" style="fill: #f4e61e"/>
    <path d="M 400.425289 231.91621
L 411.135268 231.91621
L 411.135268 231.079493
L 400.425289 231.079493
L 400.425289 231.91621
" clip-path="url(#p2533bac91a)" style="fill: #f1e51d"/>
    <path d="M 400.425289 231.079493
L 411.135268 231.079493
L 411.135268 230.242776
L 400.425289 230.242776
L 400.425289 231.079493
" clip-path="url(#p2533bac91a)" style="fill: #efe51c"/>
    <path d="M 400.425289 230.242776
L 411.135268 230.242776
L 411.135268 229.406059
L 400.425289 229.406059
L 400.425289 230.242776
" clip-path="url(#p2533bac91a)" style="fill: #ece51b"/>
    <path d="M 400.425289 229.406059
L 411.135268 229.406059
L 411.135268 228.569342
L 400.425289 228.569342
L 400.425289 229.406059
" clip-path="url(#p2533bac91a)" style="fill: #eae51a"/>
    <path d="M 400.425289 228.569342
L 411.135268 228.569342
L 411.135268 227.732624
L 400.425289 227.732624
L 400.425289 228.569342
" clip-path="url(#p2533bac91a)" style="fill: #e7e419"/>
    <path d="M 400.425289 227.732624
L 411.135268 227.732624
L 411.135268 226.895907
L 400.425289 226.895907
L 400.425289 227.732624
" clip-path="url(#p2533bac91a)" style="fill: #e5e419"/>
    <path d="M 400.425289 226.895907
L 411.135268 226.895907
L 411.135268 226.05919
L 400.425289 226.05919
L 400.425289 226.895907
" clip-path="url(#p2533bac91a)" style="fill: #e2e418"/>
    <path d="M 400.425289 226.05919
L 411.135268 226.05919
L 411.135268 225.222473
L 400.425289 225.222473
L 400.425289 226.05919
" clip-path="url(#p2533bac91a)" style="fill: #dfe318"/>
    <path d="M 400.425289 225.222473
L 411.135268 225.222473
L 411.135268 224.385756
L 400.425289 224.385756
L 400.425289 225.222473
" clip-path="url(#p2533bac91a)" style="fill: #dde318"/>
    <path d="M 400.425289 224.385756
L 411.135268 224.385756
L 411.135268 223.549039
L 400.425289 223.549039
L 400.425289 224.385756
" clip-path="url(#p2533bac91a)" style="fill: #dae319"/>
    <path d="M 400.425289 223.549039
L 411.135268 223.549039
L 411.135268 222.712322
L 400.425289 222.712322
L 400.425289 223.549039
" clip-path="url(#p2533bac91a)" style="fill: #d8e219"/>
    <path d="M 400.425289 222.712322
L 411.135268 222.712322
L 411.135268 221.875604
L 400.425289 221.875604
L 400.425289 222.712322
" clip-path="url(#p2533bac91a)" style="fill: #d5e21a"/>
    <path d="M 400.425289 221.875604
L 411.135268 221.875604
L 411.135268 221.038887
L 400.425289 221.038887
L 400.425289 221.875604
" clip-path="url(#p2533bac91a)" style="fill: #d2e21b"/>
    <path d="M 400.425289 221.038887
L 411.135268 221.038887
L 411.135268 220.20217
L 400.425289 220.20217
L 400.425289 221.038887
" clip-path="url(#p2533bac91a)" style="fill: #d0e11c"/>
    <path d="M 400.425289 220.20217
L 411.135268 220.20217
L 411.135268 219.365453
L 400.425289 219.365453
L 400.425289 220.20217
" clip-path="url(#p2533bac91a)" style="fill: #cde11d"/>
    <path d="M 400.425289 219.365453
L 411.135268 219.365453
L 411.135268 218.528736
L 400.425289 218.528736
L 400.425289 219.365453
" clip-path="url(#p2533bac91a)" style="fill: #cae11f"/>
    <path d="M 400.425289 218.528736
L 411.135268 218.528736
L 411.135268 217.692019
L 400.425289 217.692019
L 400.425289 218.528736
" clip-path="url(#p2533bac91a)" style="fill: #c8e020"/>
    <path d="M 400.425289 217.692019
L 411.135268 217.692019
L 411.135268 216.855301
L 400.425289 216.855301
L 400.425289 217.692019
" clip-path="url(#p2533bac91a)" style="fill: #c5e021"/>
    <path d="M 400.425289 216.855301
L 411.135268 216.855301
L 411.135268 216.018584
L 400.425289 216.018584
L 400.425289 216.855301
" clip-path="url(#p2533bac91a)" style="fill: #c2df23"/>
    <path d="M 400.425289 216.018584
L 411.135268 216.018584
L 411.135268 215.181867
L 400.425289 215.181867
L 400.425289 216.018584
" clip-path="url(#p2533bac91a)" style="fill: #c0df25"/>
    <path d="M 400.425289 215.181867
L 411.135268 215.181867
L 411.135268 214.34515
L 400.425289 214.34515
L 400.425289 215.181867
" clip-path="url(#p2533bac91a)" style="fill: #bddf26"/>
    <path d="M 400.425289 214.34515
L 411.135268 214.34515
L 411.135268 213.508433
L 400.425289 213.508433
L 400.425289 214.34515
" clip-path="url(#p2533bac91a)" style="fill: #bade28"/>
    <path d="M 400.425289 213.508433
L 411.135268 213.508433
L 411.135268 212.671716
L 400.425289 212.671716
L 400.425289 213.508433
" clip-path="url(#p2533bac91a)" style="fill: #b8de29"/>
    <path d="M 400.425289 212.671716
L 411.135268 212.671716
L 411.135268 211.834998
L 400.425289 211.834998
L 400.425289 212.671716
" clip-path="url(#p2533bac91a)" style="fill: #b5de2b"/>
    <path d="M 400.425289 211.834998
L 411.135268 211.834998
L 411.135268 210.998281
L 400.425289 210.998281
L 400.425289 211.834998
" clip-path="url(#p2533bac91a)" style="fill: #b2dd2d"/>
    <path d="M 400.425289 210.998281
L 411.135268 210.998281
L 411.135268 210.161564
L 400.425289 210.161564
L 400.425289 210.998281
" clip-path="url(#p2533bac91a)" style="fill: #b0dd2f"/>
    <path d="M 400.425289 210.161564
L 411.135268 210.161564
L 411.135268 209.324847
L 400.425289 209.324847
L 400.425289 210.161564
" clip-path="url(#p2533bac91a)" style="fill: #addc30"/>
    <path d="M 400.425289 209.324847
L 411.135268 209.324847
L 411.135268 208.48813
L 400.425289 208.48813
L 400.425289 209.324847
" clip-path="url(#p2533bac91a)" style="fill: #aadc32"/>
    <path d="M 400.425289 208.48813
L 411.135268 208.48813
L 411.135268 207.651413
L 400.425289 207.651413
L 400.425289 208.48813
" clip-path="url(#p2533bac91a)" style="fill: #a8db34"/>
    <path d="M 400.425289 207.651413
L 411.135268 207.651413
L 411.135268 206.814696
L 400.425289 206.814696
L 400.425289 207.651413
" clip-path="url(#p2533bac91a)" style="fill: #a5db36"/>
    <path d="M 400.425289 206.814696
L 411.135268 206.814696
L 411.135268 205.977978
L 400.425289 205.977978
L 400.425289 206.814696
" clip-path="url(#p2533bac91a)" style="fill: #a2da37"/>
    <path d="M 400.425289 205.977978
L 411.135268 205.977978
L 411.135268 205.141261
L 400.425289 205.141261
L 400.425289 205.977978
" clip-path="url(#p2533bac91a)" style="fill: #a0da39"/>
    <path d="M 400.425289 205.141261
L 411.135268 205.141261
L 411.135268 204.304544
L 400.425289 204.304544
L 400.425289 205.141261
" clip-path="url(#p2533bac91a)" style="fill: #9dd93b"/>
    <path d="M 400.425289 204.304544
L 411.135268 204.304544
L 411.135268 203.467827
L 400.425289 203.467827
L 400.425289 204.304544
" clip-path="url(#p2533bac91a)" style="fill: #9bd93c"/>
    <path d="M 400.425289 203.467827
L 411.135268 203.467827
L 411.135268 202.63111
L 400.425289 202.63111
L 400.425289 203.467827
" clip-path="url(#p2533bac91a)" style="fill: #98d83e"/>
    <path d="M 400.425289 202.63111
L 411.135268 202.63111
L 411.135268 201.794393
L 400.425289 201.794393
L 400.425289 202.63111
" clip-path="url(#p2533bac91a)" style="fill: #95d840"/>
    <path d="M 400.425289 201.794393
L 411.135268 201.794393
L 411.135268 200.957675
L 400.425289 200.957675
L 400.425289 201.794393
" clip-path="url(#p2533bac91a)" style="fill: #93d741"/>
    <path d="M 400.425289 200.957675
L 411.135268 200.957675
L 411.135268 200.120958
L 400.425289 200.120958
L 400.425289 200.957675
" clip-path="url(#p2533bac91a)" style="fill: #90d743"/>
    <path d="M 400.425289 200.120958
L 411.135268 200.120958
L 411.135268 199.284241
L 400.425289 199.284241
L 400.425289 200.120958
" clip-path="url(#p2533bac91a)" style="fill: #8ed645"/>
    <path d="M 400.425289 199.284241
L 411.135268 199.284241
L 411.135268 198.447524
L 400.425289 198.447524
L 400.425289 199.284241
" clip-path="url(#p2533bac91a)" style="fill: #8bd646"/>
    <path d="M 400.425289 198.447524
L 411.135268 198.447524
L 411.135268 197.610807
L 400.425289 197.610807
L 400.425289 198.447524
" clip-path="url(#p2533bac91a)" style="fill: #89d548"/>
    <path d="M 400.425289 197.610807
L 411.135268 197.610807
L 411.135268 196.77409
L 400.425289 196.77409
L 400.425289 197.610807
" clip-path="url(#p2533bac91a)" style="fill: #86d549"/>
    <path d="M 400.425289 196.77409
L 411.135268 196.77409
L 411.135268 195.937372
L 400.425289 195.937372
L 400.425289 196.77409
" clip-path="url(#p2533bac91a)" style="fill: #84d44b"/>
    <path d="M 400.425289 195.937372
L 411.135268 195.937372
L 411.135268 195.100655
L 400.425289 195.100655
L 400.425289 195.937372
" clip-path="url(#p2533bac91a)" style="fill: #81d34d"/>
    <path d="M 400.425289 195.100655
L 411.135268 195.100655
L 411.135268 194.263938
L 400.425289 194.263938
L 400.425289 195.100655
" clip-path="url(#p2533bac91a)" style="fill: #7fd34e"/>
    <path d="M 400.425289 194.263938
L 411.135268 194.263938
L 411.135268 193.427221
L 400.425289 193.427221
L 400.425289 194.263938
" clip-path="url(#p2533bac91a)" style="fill: #7cd250"/>
    <path d="M 400.425289 193.427221
L 411.135268 193.427221
L 411.135268 192.590504
L 400.425289 192.590504
L 400.425289 193.427221
" clip-path="url(#p2533bac91a)" style="fill: #7ad151"/>
    <path d="M 400.425289 192.590504
L 411.135268 192.590504
L 411.135268 191.753787
L 400.425289 191.753787
L 400.425289 192.590504
" clip-path="url(#p2533bac91a)" style="fill: #77d153"/>
    <path d="M 400.425289 191.753787
L 411.135268 191.753787
L 411.135268 190.91707
L 400.425289 190.91707
L 400.425289 191.753787
" clip-path="url(#p2533bac91a)" style="fill: #75d054"/>
    <path d="M 400.425289 190.91707
L 411.135268 190.91707
L 411.135268 190.080352
L 400.425289 190.080352
L 400.425289 190.91707
" clip-path="url(#p2533bac91a)" style="fill: #73d056"/>
    <path d="M 400.425289 190.080352
L 411.135268 190.080352
L 411.135268 189.243635
L 400.425289 189.243635
L 400.425289 190.080352
" clip-path="url(#p2533bac91a)" style="fill: #70cf57"/>
    <path d="M 400.425289 189.243635
L 411.135268 189.243635
L 411.135268 188.406918
L 400.425289 188.406918
L 400.425289 189.243635
" clip-path="url(#p2533bac91a)" style="fill: #6ece58"/>
    <path d="M 400.425289 188.406918
L 411.135268 188.406918
L 411.135268 187.570201
L 400.425289 187.570201
L 400.425289 188.406918
" clip-path="url(#p2533bac91a)" style="fill: #6ccd5a"/>
    <path d="M 400.425289 187.570201
L 411.135268 187.570201
L 411.135268 186.733484
L 400.425289 186.733484
L 400.425289 187.570201
" clip-path="url(#p2533bac91a)" style="fill: #69cd5b"/>
    <path d="M 400.425289 186.733484
L 411.135268 186.733484
L 411.135268 185.896767
L 400.425289 185.896767
L 400.425289 186.733484
" clip-path="url(#p2533bac91a)" style="fill: #67cc5c"/>
    <path d="M 400.425289 185.896767
L 411.135268 185.896767
L 411.135268 185.060049
L 400.425289 185.060049
L 400.425289 185.896767
" clip-path="url(#p2533bac91a)" style="fill: #65cb5e"/>
    <path d="M 400.425289 185.060049
L 411.135268 185.060049
L 411.135268 184.223332
L 400.425289 184.223332
L 400.425289 185.060049
" clip-path="url(#p2533bac91a)" style="fill: #63cb5f"/>
    <path d="M 400.425289 184.223332
L 411.135268 184.223332
L 411.135268 183.386615
L 400.425289 183.386615
L 400.425289 184.223332
" clip-path="url(#p2533bac91a)" style="fill: #60ca60"/>
    <path d="M 400.425289 183.386615
L 411.135268 183.386615
L 411.135268 182.549898
L 400.425289 182.549898
L 400.425289 183.386615
" clip-path="url(#p2533bac91a)" style="fill: #5ec962"/>
    <path d="M 400.425289 182.549898
L 411.135268 182.549898
L 411.135268 181.713181
L 400.425289 181.713181
L 400.425289 182.549898
" clip-path="url(#p2533bac91a)" style="fill: #5cc863"/>
    <path d="M 400.425289 181.713181
L 411.135268 181.713181
L 411.135268 180.876464
L 400.425289 180.876464
L 400.425289 181.713181
" clip-path="url(#p2533bac91a)" style="fill: #5ac864"/>
    <path d="M 400.425289 180.876464
L 411.135268 180.876464
L 411.135268 180.039747
L 400.425289 180.039747
L 400.425289 180.876464
" clip-path="url(#p2533bac91a)" style="fill: #58c765"/>
    <path d="M 400.425289 180.039747
L 411.135268 180.039747
L 411.135268 179.203029
L 400.425289 179.203029
L 400.425289 180.039747
" clip-path="url(#p2533bac91a)" style="fill: #56c667"/>
    <path d="M 400.425289 179.203029
L 411.135268 179.203029
L 411.135268 178.366312
L 400.425289 178.366312
L 400.425289 179.203029
" clip-path="url(#p2533bac91a)" style="fill: #54c568"/>
    <path d="M 400.425289 178.366312
L 411.135268 178.366312
L 411.135268 177.529595
L 400.425289 177.529595
L 400.425289 178.366312
" clip-path="url(#p2533bac91a)" style="fill: #52c569"/>
    <path d="M 400.425289 177.529595
L 411.135268 177.529595
L 411.135268 176.692878
L 400.425289 176.692878
L 400.425289 177.529595
" clip-path="url(#p2533bac91a)" style="fill: #50c46a"/>
    <path d="M 400.425289 176.692878
L 411.135268 176.692878
L 411.135268 175.856161
L 400.425289 175.856161
L 400.425289 176.692878
" clip-path="url(#p2533bac91a)" style="fill: #4ec36b"/>
    <path d="M 400.425289 175.856161
L 411.135268 175.856161
L 411.135268 175.019444
L 400.425289 175.019444
L 400.425289 175.856161
" clip-path="url(#p2533bac91a)" style="fill: #4cc26c"/>
    <path d="M 400.425289 175.019444
L 411.135268 175.019444
L 411.135268 174.182726
L 400.425289 174.182726
L 400.425289 175.019444
" clip-path="url(#p2533bac91a)" style="fill: #4ac16d"/>
    <path d="M 400.425289 174.182726
L 411.135268 174.182726
L 411.135268 173.346009
L 400.425289 173.346009
L 400.425289 174.182726
" clip-path="url(#p2533bac91a)" style="fill: #48c16e"/>
    <path d="M 400.425289 173.346009
L 411.135268 173.346009
L 411.135268 172.509292
L 400.425289 172.509292
L 400.425289 173.346009
" clip-path="url(#p2533bac91a)" style="fill: #46c06f"/>
    <path d="M 400.425289 172.509292
L 411.135268 172.509292
L 411.135268 171.672575
L 400.425289 171.672575
L 400.425289 172.509292
" clip-path="url(#p2533bac91a)" style="fill: #44bf70"/>
    <path d="M 400.425289 171.672575
L 411.135268 171.672575
L 411.135268 170.835858
L 400.425289 170.835858
L 400.425289 171.672575
" clip-path="url(#p2533bac91a)" style="fill: #42be71"/>
    <path d="M 400.425289 170.835858
L 411.135268 170.835858
L 411.135268 169.999141
L 400.425289 169.999141
L 400.425289 170.835858
" clip-path="url(#p2533bac91a)" style="fill: #40bd72"/>
    <path d="M 400.425289 169.999141
L 411.135268 169.999141
L 411.135268 169.162423
L 400.425289 169.162423
L 400.425289 169.999141
" clip-path="url(#p2533bac91a)" style="fill: #3fbc73"/>
    <path d="M 400.425289 169.162423
L 411.135268 169.162423
L 411.135268 168.325706
L 400.425289 168.325706
L 400.425289 169.162423
" clip-path="url(#p2533bac91a)" style="fill: #3dbc74"/>
    <path d="M 400.425289 168.325706
L 411.135268 168.325706
L 411.135268 167.488989
L 400.425289 167.488989
L 400.425289 168.325706
" clip-path="url(#p2533bac91a)" style="fill: #3bbb75"/>
    <path d="M 400.425289 167.488989
L 411.135268 167.488989
L 411.135268 166.652272
L 400.425289 166.652272
L 400.425289 167.488989
" clip-path="url(#p2533bac91a)" style="fill: #3aba76"/>
    <path d="M 400.425289 166.652272
L 411.135268 166.652272
L 411.135268 165.815555
L 400.425289 165.815555
L 400.425289 166.652272
" clip-path="url(#p2533bac91a)" style="fill: #38b977"/>
    <path d="M 400.425289 165.815555
L 411.135268 165.815555
L 411.135268 164.978838
L 400.425289 164.978838
L 400.425289 165.815555
" clip-path="url(#p2533bac91a)" style="fill: #37b878"/>
    <path d="M 400.425289 164.978838
L 411.135268 164.978838
L 411.135268 164.142121
L 400.425289 164.142121
L 400.425289 164.978838
" clip-path="url(#p2533bac91a)" style="fill: #35b779"/>
    <path d="M 400.425289 164.142121
L 411.135268 164.142121
L 411.135268 163.305403
L 400.425289 163.305403
L 400.425289 164.142121
" clip-path="url(#p2533bac91a)" style="fill: #34b679"/>
    <path d="M 400.425289 163.305403
L 411.135268 163.305403
L 411.135268 162.468686
L 400.425289 162.468686
L 400.425289 163.305403
" clip-path="url(#p2533bac91a)" style="fill: #32b67a"/>
    <path d="M 400.425289 162.468686
L 411.135268 162.468686
L 411.135268 161.631969
L 400.425289 161.631969
L 400.425289 162.468686
" clip-path="url(#p2533bac91a)" style="fill: #31b57b"/>
    <path d="M 400.425289 161.631969
L 411.135268 161.631969
L 411.135268 160.795252
L 400.425289 160.795252
L 400.425289 161.631969
" clip-path="url(#p2533bac91a)" style="fill: #2fb47c"/>
    <path d="M 400.425289 160.795252
L 411.135268 160.795252
L 411.135268 159.958535
L 400.425289 159.958535
L 400.425289 160.795252
" clip-path="url(#p2533bac91a)" style="fill: #2eb37c"/>
    <path d="M 400.425289 159.958535
L 411.135268 159.958535
L 411.135268 159.121818
L 400.425289 159.121818
L 400.425289 159.958535
" clip-path="url(#p2533bac91a)" style="fill: #2db27d"/>
    <path d="M 400.425289 159.121818
L 411.135268 159.121818
L 411.135268 158.2851
L 400.425289 158.2851
L 400.425289 159.121818
" clip-path="url(#p2533bac91a)" style="fill: #2cb17e"/>
    <path d="M 400.425289 158.2851
L 411.135268 158.2851
L 411.135268 157.448383
L 400.425289 157.448383
L 400.425289 158.2851
" clip-path="url(#p2533bac91a)" style="fill: #2ab07f"/>
    <path d="M 400.425289 157.448383
L 411.135268 157.448383
L 411.135268 156.611666
L 400.425289 156.611666
L 400.425289 157.448383
" clip-path="url(#p2533bac91a)" style="fill: #29af7f"/>
    <path d="M 400.425289 156.611666
L 411.135268 156.611666
L 411.135268 155.774949
L 400.425289 155.774949
L 400.425289 156.611666
" clip-path="url(#p2533bac91a)" style="fill: #28ae80"/>
    <path d="M 400.425289 155.774949
L 411.135268 155.774949
L 411.135268 154.938232
L 400.425289 154.938232
L 400.425289 155.774949
" clip-path="url(#p2533bac91a)" style="fill: #27ad81"/>
    <path d="M 400.425289 154.938232
L 411.135268 154.938232
L 411.135268 154.101515
L 400.425289 154.101515
L 400.425289 154.938232
" clip-path="url(#p2533bac91a)" style="fill: #26ad81"/>
    <path d="M 400.425289 154.101515
L 411.135268 154.101515
L 411.135268 153.264798
L 400.425289 153.264798
L 400.425289 154.101515
" clip-path="url(#p2533bac91a)" style="fill: #25ac82"/>
    <path d="M 400.425289 153.264798
L 411.135268 153.264798
L 411.135268 152.42808
L 400.425289 152.42808
L 400.425289 153.264798
" clip-path="url(#p2533bac91a)" style="fill: #25ab82"/>
    <path d="M 400.425289 152.42808
L 411.135268 152.42808
L 411.135268 151.591363
L 400.425289 151.591363
L 400.425289 152.42808
" clip-path="url(#p2533bac91a)" style="fill: #24aa83"/>
    <path d="M 400.425289 151.591363
L 411.135268 151.591363
L 411.135268 150.754646
L 400.425289 150.754646
L 400.425289 151.591363
" clip-path="url(#p2533bac91a)" style="fill: #23a983"/>
    <path d="M 400.425289 150.754646
L 411.135268 150.754646
L 411.135268 149.917929
L 400.425289 149.917929
L 400.425289 150.754646
" clip-path="url(#p2533bac91a)" style="fill: #22a884"/>
    <path d="M 400.425289 149.917929
L 411.135268 149.917929
L 411.135268 149.081212
L 400.425289 149.081212
L 400.425289 149.917929
" clip-path="url(#p2533bac91a)" style="fill: #22a785"/>
    <path d="M 400.425289 149.081212
L 411.135268 149.081212
L 411.135268 148.244495
L 400.425289 148.244495
L 400.425289 149.081212
" clip-path="url(#p2533bac91a)" style="fill: #21a685"/>
    <path d="M 400.425289 148.244495
L 411.135268 148.244495
L 411.135268 147.407777
L 400.425289 147.407777
L 400.425289 148.244495
" clip-path="url(#p2533bac91a)" style="fill: #21a585"/>
    <path d="M 400.425289 147.407777
L 411.135268 147.407777
L 411.135268 146.57106
L 400.425289 146.57106
L 400.425289 147.407777
" clip-path="url(#p2533bac91a)" style="fill: #20a486"/>
    <path d="M 400.425289 146.57106
L 411.135268 146.57106
L 411.135268 145.734343
L 400.425289 145.734343
L 400.425289 146.57106
" clip-path="url(#p2533bac91a)" style="fill: #20a386"/>
    <path d="M 400.425289 145.734343
L 411.135268 145.734343
L 411.135268 144.897626
L 400.425289 144.897626
L 400.425289 145.734343
" clip-path="url(#p2533bac91a)" style="fill: #1fa287"/>
    <path d="M 400.425289 144.897626
L 411.135268 144.897626
L 411.135268 144.060909
L 400.425289 144.060909
L 400.425289 144.897626
" clip-path="url(#p2533bac91a)" style="fill: #1fa187"/>
    <path d="M 400.425289 144.060909
L 411.135268 144.060909
L 411.135268 143.224192
L 400.425289 143.224192
L 400.425289 144.060909
" clip-path="url(#p2533bac91a)" style="fill: #1fa188"/>
    <path d="M 400.425289 143.224192
L 411.135268 143.224192
L 411.135268 142.387475
L 400.425289 142.387475
L 400.425289 143.224192
" clip-path="url(#p2533bac91a)" style="fill: #1fa088"/>
    <path d="M 400.425289 142.387475
L 411.135268 142.387475
L 411.135268 141.550757
L 400.425289 141.550757
L 400.425289 142.387475
" clip-path="url(#p2533bac91a)" style="fill: #1f9f88"/>
    <path d="M 400.425289 141.550757
L 411.135268 141.550757
L 411.135268 140.71404
L 400.425289 140.71404
L 400.425289 141.550757
" clip-path="url(#p2533bac91a)" style="fill: #1f9e89"/>
    <path d="M 400.425289 140.71404
L 411.135268 140.71404
L 411.135268 139.877323
L 400.425289 139.877323
L 400.425289 140.71404
" clip-path="url(#p2533bac91a)" style="fill: #1e9d89"/>
    <path d="M 400.425289 139.877323
L 411.135268 139.877323
L 411.135268 139.040606
L 400.425289 139.040606
L 400.425289 139.877323
" clip-path="url(#p2533bac91a)" style="fill: #1e9c89"/>
    <path d="M 400.425289 139.040606
L 411.135268 139.040606
L 411.135268 138.203889
L 400.425289 138.203889
L 400.425289 139.040606
" clip-path="url(#p2533bac91a)" style="fill: #1e9b8a"/>
    <path d="M 400.425289 138.203889
L 411.135268 138.203889
L 411.135268 137.367172
L 400.425289 137.367172
L 400.425289 138.203889
" clip-path="url(#p2533bac91a)" style="fill: #1f9a8a"/>
    <path d="M 400.425289 137.367172
L 411.135268 137.367172
L 411.135268 136.530454
L 400.425289 136.530454
L 400.425289 137.367172
" clip-path="url(#p2533bac91a)" style="fill: #1f998a"/>
    <path d="M 400.425289 136.530454
L 411.135268 136.530454
L 411.135268 135.693737
L 400.425289 135.693737
L 400.425289 136.530454
" clip-path="url(#p2533bac91a)" style="fill: #1f988b"/>
    <path d="M 400.425289 135.693737
L 411.135268 135.693737
L 411.135268 134.85702
L 400.425289 134.85702
L 400.425289 135.693737
" clip-path="url(#p2533bac91a)" style="fill: #1f978b"/>
    <path d="M 400.425289 134.85702
L 411.135268 134.85702
L 411.135268 134.020303
L 400.425289 134.020303
L 400.425289 134.85702
" clip-path="url(#p2533bac91a)" style="fill: #1f968b"/>
    <path d="M 400.425289 134.020303
L 411.135268 134.020303
L 411.135268 133.183586
L 400.425289 133.183586
L 400.425289 134.020303
" clip-path="url(#p2533bac91a)" style="fill: #1f958b"/>
    <path d="M 400.425289 133.183586
L 411.135268 133.183586
L 411.135268 132.346869
L 400.425289 132.346869
L 400.425289 133.183586
" clip-path="url(#p2533bac91a)" style="fill: #1f948c"/>
    <path d="M 400.425289 132.346869
L 411.135268 132.346869
L 411.135268 131.510151
L 400.425289 131.510151
L 400.425289 132.346869
" clip-path="url(#p2533bac91a)" style="fill: #20938c"/>
    <path d="M 400.425289 131.510151
L 411.135268 131.510151
L 411.135268 130.673434
L 400.425289 130.673434
L 400.425289 131.510151
" clip-path="url(#p2533bac91a)" style="fill: #20928c"/>
    <path d="M 400.425289 130.673434
L 411.135268 130.673434
L 411.135268 129.836717
L 400.425289 129.836717
L 400.425289 130.673434
" clip-path="url(#p2533bac91a)" style="fill: #20928c"/>
    <path d="M 400.425289 129.836717
L 411.135268 129.836717
L 411.135268 129
L 400.425289 129
L 400.425289 129.836717
" clip-path="url(#p2533bac91a)" style="fill: #21918c"/>
    <path d="M 400.425289 129
L 411.135268 129
L 411.135268 128.163283
L 400.425289 128.163283
L 400.425289 129
" clip-path="url(#p2533bac91a)" style="fill: #21908d"/>
    <path d="M 400.425289 128.163283
L 411.135268 128.163283
L 411.135268 127.326566
L 400.425289 127.326566
L 400.425289 128.163283
" clip-path="url(#p2533bac91a)" style="fill: #218f8d"/>
    <path d="M 400.425289 127.326566
L 411.135268 127.326566
L 411.135268 126.489849
L 400.425289 126.489849
L 400.425289 127.326566
" clip-path="url(#p2533bac91a)" style="fill: #218e8d"/>
    <path d="M 400.425289 126.489849
L 411.135268 126.489849
L 411.135268 125.653131
L 400.425289 125.653131
L 400.425289 126.489849
" clip-path="url(#p2533bac91a)" style="fill: #228d8d"/>
    <path d="M 400.425289 125.653131
L 411.135268 125.653131
L 411.135268 124.816414
L 400.425289 124.816414
L 400.425289 125.653131
" clip-path="url(#p2533bac91a)" style="fill: #228c8d"/>
    <path d="M 400.425289 124.816414
L 411.135268 124.816414
L 411.135268 123.979697
L 400.425289 123.979697
L 400.425289 124.816414
" clip-path="url(#p2533bac91a)" style="fill: #228b8d"/>
    <path d="M 400.425289 123.979697
L 411.135268 123.979697
L 411.135268 123.14298
L 400.425289 123.14298
L 400.425289 123.979697
" clip-path="url(#p2533bac91a)" style="fill: #238a8d"/>
    <path d="M 400.425289 123.14298
L 411.135268 123.14298
L 411.135268 122.306263
L 400.425289 122.306263
L 400.425289 123.14298
" clip-path="url(#p2533bac91a)" style="fill: #23898e"/>
    <path d="M 400.425289 122.306263
L 411.135268 122.306263
L 411.135268 121.469546
L 400.425289 121.469546
L 400.425289 122.306263
" clip-path="url(#p2533bac91a)" style="fill: #23888e"/>
    <path d="M 400.425289 121.469546
L 411.135268 121.469546
L 411.135268 120.632828
L 400.425289 120.632828
L 400.425289 121.469546
" clip-path="url(#p2533bac91a)" style="fill: #24878e"/>
    <path d="M 400.425289 120.632828
L 411.135268 120.632828
L 411.135268 119.796111
L 400.425289 119.796111
L 400.425289 120.632828
" clip-path="url(#p2533bac91a)" style="fill: #24868e"/>
    <path d="M 400.425289 119.796111
L 411.135268 119.796111
L 411.135268 118.959394
L 400.425289 118.959394
L 400.425289 119.796111
" clip-path="url(#p2533bac91a)" style="fill: #25858e"/>
    <path d="M 400.425289 118.959394
L 411.135268 118.959394
L 411.135268 118.122677
L 400.425289 118.122677
L 400.425289 118.959394
" clip-path="url(#p2533bac91a)" style="fill: #25848e"/>
    <path d="M 400.425289 118.122677
L 411.135268 118.122677
L 411.135268 117.28596
L 400.425289 117.28596
L 400.425289 118.122677
" clip-path="url(#p2533bac91a)" style="fill: #25838e"/>
    <path d="M 400.425289 117.28596
L 411.135268 117.28596
L 411.135268 116.449243
L 400.425289 116.449243
L 400.425289 117.28596
" clip-path="url(#p2533bac91a)" style="fill: #26828e"/>
    <path d="M 400.425289 116.449243
L 411.135268 116.449243
L 411.135268 115.612525
L 400.425289 115.612525
L 400.425289 116.449243
" clip-path="url(#p2533bac91a)" style="fill: #26828e"/>
    <path d="M 400.425289 115.612525
L 411.135268 115.612525
L 411.135268 114.775808
L 400.425289 114.775808
L 400.425289 115.612525
" clip-path="url(#p2533bac91a)" style="fill: #26818e"/>
    <path d="M 400.425289 114.775808
L 411.135268 114.775808
L 411.135268 113.939091
L 400.425289 113.939091
L 400.425289 114.775808
" clip-path="url(#p2533bac91a)" style="fill: #27808e"/>
    <path d="M 400.425289 113.939091
L 411.135268 113.939091
L 411.135268 113.102374
L 400.425289 113.102374
L 400.425289 113.939091
" clip-path="url(#p2533bac91a)" style="fill: #277f8e"/>
    <path d="M 400.425289 113.102374
L 411.135268 113.102374
L 411.135268 112.265657
L 400.425289 112.265657
L 400.425289 113.102374
" clip-path="url(#p2533bac91a)" style="fill: #277e8e"/>
    <path d="M 400.425289 112.265657
L 411.135268 112.265657
L 411.135268 111.42894
L 400.425289 111.42894
L 400.425289 112.265657
" clip-path="url(#p2533bac91a)" style="fill: #287d8e"/>
    <path d="M 400.425289 111.42894
L 411.135268 111.42894
L 411.135268 110.592223
L 400.425289 110.592223
L 400.425289 111.42894
" clip-path="url(#p2533bac91a)" style="fill: #287c8e"/>
    <path d="M 400.425289 110.592223
L 411.135268 110.592223
L 411.135268 109.755505
L 400.425289 109.755505
L 400.425289 110.592223
" clip-path="url(#p2533bac91a)" style="fill: #297b8e"/>
    <path d="M 400.425289 109.755505
L 411.135268 109.755505
L 411.135268 108.918788
L 400.425289 108.918788
L 400.425289 109.755505
" clip-path="url(#p2533bac91a)" style="fill: #297a8e"/>
    <path d="M 400.425289 108.918788
L 411.135268 108.918788
L 411.135268 108.082071
L 400.425289 108.082071
L 400.425289 108.918788
" clip-path="url(#p2533bac91a)" style="fill: #29798e"/>
    <path d="M 400.425289 108.082071
L 411.135268 108.082071
L 411.135268 107.245354
L 400.425289 107.245354
L 400.425289 108.082071
" clip-path="url(#p2533bac91a)" style="fill: #2a788e"/>
    <path d="M 400.425289 107.245354
L 411.135268 107.245354
L 411.135268 106.408637
L 400.425289 106.408637
L 400.425289 107.245354
" clip-path="url(#p2533bac91a)" style="fill: #2a778e"/>
    <path d="M 400.425289 106.408637
L 411.135268 106.408637
L 411.135268 105.57192
L 400.425289 105.57192
L 400.425289 106.408637
" clip-path="url(#p2533bac91a)" style="fill: #2a768e"/>
    <path d="M 400.425289 105.57192
L 411.135268 105.57192
L 411.135268 104.735202
L 400.425289 104.735202
L 400.425289 105.57192
" clip-path="url(#p2533bac91a)" style="fill: #2b758e"/>
    <path d="M 400.425289 104.735202
L 411.135268 104.735202
L 411.135268 103.898485
L 400.425289 103.898485
L 400.425289 104.735202
" clip-path="url(#p2533bac91a)" style="fill: #2b748e"/>
    <path d="M 400.425289 103.898485
L 411.135268 103.898485
L 411.135268 103.061768
L 400.425289 103.061768
L 400.425289 103.898485
" clip-path="url(#p2533bac91a)" style="fill: #2c738e"/>
    <path d="M 400.425289 103.061768
L 411.135268 103.061768
L 411.135268 102.225051
L 400.425289 102.225051
L 400.425289 103.061768
" clip-path="url(#p2533bac91a)" style="fill: #2c728e"/>
    <path d="M 400.425289 102.225051
L 411.135268 102.225051
L 411.135268 101.388334
L 400.425289 101.388334
L 400.425289 102.225051
" clip-path="url(#p2533bac91a)" style="fill: #2c718e"/>
    <path d="M 400.425289 101.388334
L 411.135268 101.388334
L 411.135268 100.551617
L 400.425289 100.551617
L 400.425289 101.388334
" clip-path="url(#p2533bac91a)" style="fill: #2d718e"/>
    <path d="M 400.425289 100.551617
L 411.135268 100.551617
L 411.135268 99.7149
L 400.425289 99.7149
L 400.425289 100.551617
" clip-path="url(#p2533bac91a)" style="fill: #2d708e"/>
    <path d="M 400.425289 99.7149
L 411.135268 99.7149
L 411.135268 98.878182
L 400.425289 98.878182
L 400.425289 99.7149
" clip-path="url(#p2533bac91a)" style="fill: #2e6f8e"/>
    <path d="M 400.425289 98.878182
L 411.135268 98.878182
L 411.135268 98.041465
L 400.425289 98.041465
L 400.425289 98.878182
" clip-path="url(#p2533bac91a)" style="fill: #2e6e8e"/>
    <path d="M 400.425289 98.041465
L 411.135268 98.041465
L 411.135268 97.204748
L 400.425289 97.204748
L 400.425289 98.041465
" clip-path="url(#p2533bac91a)" style="fill: #2e6d8e"/>
    <path d="M 400.425289 97.204748
L 411.135268 97.204748
L 411.135268 96.368031
L 400.425289 96.368031
L 400.425289 97.204748
" clip-path="url(#p2533bac91a)" style="fill: #2f6c8e"/>
    <path d="M 400.425289 96.368031
L 411.135268 96.368031
L 411.135268 95.531314
L 400.425289 95.531314
L 400.425289 96.368031
" clip-path="url(#p2533bac91a)" style="fill: #2f6b8e"/>
    <path d="M 400.425289 95.531314
L 411.135268 95.531314
L 411.135268 94.694597
L 400.425289 94.694597
L 400.425289 95.531314
" clip-path="url(#p2533bac91a)" style="fill: #306a8e"/>
    <path d="M 400.425289 94.694597
L 411.135268 94.694597
L 411.135268 93.857879
L 400.425289 93.857879
L 400.425289 94.694597
" clip-path="url(#p2533bac91a)" style="fill: #30698e"/>
    <path d="M 400.425289 93.857879
L 411.135268 93.857879
L 411.135268 93.021162
L 400.425289 93.021162
L 400.425289 93.857879
" clip-path="url(#p2533bac91a)" style="fill: #31688e"/>
    <path d="M 400.425289 93.021162
L 411.135268 93.021162
L 411.135268 92.184445
L 400.425289 92.184445
L 400.425289 93.021162
" clip-path="url(#p2533bac91a)" style="fill: #31678e"/>
    <path d="M 400.425289 92.184445
L 411.135268 92.184445
L 411.135268 91.347728
L 400.425289 91.347728
L 400.425289 92.184445
" clip-path="url(#p2533bac91a)" style="fill: #31668e"/>
    <path d="M 400.425289 91.347728
L 411.135268 91.347728
L 411.135268 90.511011
L 400.425289 90.511011
L 400.425289 91.347728
" clip-path="url(#p2533bac91a)" style="fill: #32658e"/>
    <path d="M 400.425289 90.511011
L 411.135268 90.511011
L 411.135268 89.674294
L 400.425289 89.674294
L 400.425289 90.511011
" clip-path="url(#p2533bac91a)" style="fill: #32648e"/>
    <path d="M 400.425289 89.674294
L 411.135268 89.674294
L 411.135268 88.837577
L 400.425289 88.837577
L 400.425289 89.674294
" clip-path="url(#p2533bac91a)" style="fill: #33638d"/>
    <path d="M 400.425289 88.837577
L 411.135268 88.837577
L 411.135268 88.000859
L 400.425289 88.000859
L 400.425289 88.837577
" clip-path="url(#p2533bac91a)" style="fill: #33628d"/>
    <path d="M 400.425289 88.000859
L 411.135268 88.000859
L 411.135268 87.164142
L 400.425289 87.164142
L 400.425289 88.000859
" clip-path="url(#p2533bac91a)" style="fill: #34618d"/>
    <path d="M 400.425289 87.164142
L 411.135268 87.164142
L 411.135268 86.327425
L 400.425289 86.327425
L 400.425289 87.164142
" clip-path="url(#p2533bac91a)" style="fill: #34608d"/>
    <path d="M 400.425289 86.327425
L 411.135268 86.327425
L 411.135268 85.490708
L 400.425289 85.490708
L 400.425289 86.327425
" clip-path="url(#p2533bac91a)" style="fill: #355f8d"/>
    <path d="M 400.425289 85.490708
L 411.135268 85.490708
L 411.135268 84.653991
L 400.425289 84.653991
L 400.425289 85.490708
" clip-path="url(#p2533bac91a)" style="fill: #355e8d"/>
    <path d="M 400.425289 84.653991
L 411.135268 84.653991
L 411.135268 83.817274
L 400.425289 83.817274
L 400.425289 84.653991
" clip-path="url(#p2533bac91a)" style="fill: #365d8d"/>
    <path d="M 400.425289 83.817274
L 411.135268 83.817274
L 411.135268 82.980556
L 400.425289 82.980556
L 400.425289 83.817274
" clip-path="url(#p2533bac91a)" style="fill: #365c8d"/>
    <path d="M 400.425289 82.980556
L 411.135268 82.980556
L 411.135268 82.143839
L 400.425289 82.143839
L 400.425289 82.980556
" clip-path="url(#p2533bac91a)" style="fill: #375b8d"/>
    <path d="M 400.425289 82.143839
L 411.135268 82.143839
L 411.135268 81.307122
L 400.425289 81.307122
L 400.425289 82.143839
" clip-path="url(#p2533bac91a)" style="fill: #375a8c"/>
    <path d="M 400.425289 81.307122
L 411.135268 81.307122
L 411.135268 80.470405
L 400.425289 80.470405
L 400.425289 81.307122
" clip-path="url(#p2533bac91a)" style="fill: #38598c"/>
    <path d="M 400.425289 80.470405
L 411.135268 80.470405
L 411.135268 79.633688
L 400.425289 79.633688
L 400.425289 80.470405
" clip-path="url(#p2533bac91a)" style="fill: #38588c"/>
    <path d="M 400.425289 79.633688
L 411.135268 79.633688
L 411.135268 78.796971
L 400.425289 78.796971
L 400.425289 79.633688
" clip-path="url(#p2533bac91a)" style="fill: #39568c"/>
    <path d="M 400.425289 78.796971
L 411.135268 78.796971
L 411.135268 77.960253
L 400.425289 77.960253
L 400.425289 78.796971
" clip-path="url(#p2533bac91a)" style="fill: #39558c"/>
    <path d="M 400.425289 77.960253
L 411.135268 77.960253
L 411.135268 77.123536
L 400.425289 77.123536
L 400.425289 77.960253
" clip-path="url(#p2533bac91a)" style="fill: #3a548c"/>
    <path d="M 400.425289 77.123536
L 411.135268 77.123536
L 411.135268 76.286819
L 400.425289 76.286819
L 400.425289 77.123536
" clip-path="url(#p2533bac91a)" style="fill: #3a538b"/>
    <path d="M 400.425289 76.286819
L 411.135268 76.286819
L 411.135268 75.450102
L 400.425289 75.450102
L 400.425289 76.286819
" clip-path="url(#p2533bac91a)" style="fill: #3b528b"/>
    <path d="M 400.425289 75.450102
L 411.135268 75.450102
L 411.135268 74.613385
L 400.425289 74.613385
L 400.425289 75.450102
" clip-path="url(#p2533bac91a)" style="fill: #3b518b"/>
    <path d="M 400.425289 74.613385
L 411.135268 74.613385
L 411.135268 73.776668
L 400.425289 73.776668
L 400.425289 74.613385
" clip-path="url(#p2533bac91a)" style="fill: #3c508b"/>
    <path d="M 400.425289 73.776668
L 411.135268 73.776668
L 411.135268 72.939951
L 400.425289 72.939951
L 400.425289 73.776668
" clip-path="url(#p2533bac91a)" style="fill: #3c4f8a"/>
    <path d="M 400.425289 72.939951
L 411.135268 72.939951
L 411.135268 72.103233
L 400.425289 72.103233
L 400.425289 72.939951
" clip-path="url(#p2533bac91a)" style="fill: #3d4e8a"/>
    <path d="M 400.425289 72.103233
L 411.135268 72.103233
L 411.135268 71.266516
L 400.425289 71.266516
L 400.425289 72.103233
" clip-path="url(#p2533bac91a)" style="fill: #3d4d8a"/>
    <path d="M 400.425289 71.266516
L 411.135268 71.266516
L 411.135268 70.429799
L 400.425289 70.429799
L 400.425289 71.266516
" clip-path="url(#p2533bac91a)" style="fill: #3e4c8a"/>
    <path d="M 400.425289 70.429799
L 411.135268 70.429799
L 411.135268 69.593082
L 400.425289 69.593082
L 400.425289 70.429799
" clip-path="url(#p2533bac91a)" style="fill: #3e4a89"/>
    <path d="M 400.425289 69.593082
L 411.135268 69.593082
L 411.135268 68.756365
L 400.425289 68.756365
L 400.425289 69.593082
" clip-path="url(#p2533bac91a)" style="fill: #3e4989"/>
    <path d="M 400.425289 68.756365
L 411.135268 68.756365
L 411.135268 67.919648
L 400.425289 67.919648
L 400.425289 68.756365
" clip-path="url(#p2533bac91a)" style="fill: #3f4889"/>
    <path d="M 400.425289 67.919648
L 411.135268 67.919648
L 411.135268 67.08293
L 400.425289 67.08293
L 400.425289 67.919648
" clip-path="url(#p2533bac91a)" style="fill: #3f4788"/>
    <path d="M 400.425289 67.08293
L 411.135268 67.08293
L 411.135268 66.246213
L 400.425289 66.246213
L 400.425289 67.08293
" clip-path="url(#p2533bac91a)" style="fill: #404688"/>
    <path d="M 400.425289 66.246213
L 411.135268 66.246213
L 411.135268 65.409496
L 400.425289 65.409496
L 400.425289 66.246213
" clip-path="url(#p2533bac91a)" style="fill: #404588"/>
    <path d="M 400.425289 65.409496
L 411.135268 65.409496
L 411.135268 64.572779
L 400.425289 64.572779
L 400.425289 65.409496
" clip-path="url(#p2533bac91a)" style="fill: #414487"/>
    <path d="M 400.425289 64.572779
L 411.135268 64.572779
L 411.135268 63.736062
L 400.425289 63.736062
L 400.425289 64.572779
" clip-path="url(#p2533bac91a)" style="fill: #414287"/>
    <path d="M 400.425289 63.736062
L 411.135268 63.736062
L 411.135268 62.899345
L 400.425289 62.899345
L 400.425289 63.736062
" clip-path="url(#p2533bac91a)" style="fill: #424186"/>
    <path d="M 400.425289 62.899345
L 411.135268 62.899345
L 411.135268 62.062628
L 400.425289 62.062628
L 400.425289 62.899345
" clip-path="url(#p2533bac91a)" style="fill: #424086"/>
    <path d="M 400.425289 62.062628
L 411.135268 62.062628
L 411.135268 61.22591
L 400.425289 61.22591
L 400.425289 62.062628
" clip-path="url(#p2533bac91a)" style="fill: #423f85"/>
    <path d="M 400.425289 61.22591
L 411.135268 61.22591
L 411.135268 60.389193
L 400.425289 60.389193
L 400.425289 61.22591
" clip-path="url(#p2533bac91a)" style="fill: #433e85"/>
    <path d="M 400.425289 60.389193
L 411.135268 60.389193
L 411.135268 59.552476
L 400.425289 59.552476
L 400.425289 60.389193
" clip-path="url(#p2533bac91a)" style="fill: #433d84"/>
    <path d="M 400.425289 59.552476
L 411.135268 59.552476
L 411.135268 58.715759
L 400.425289 58.715759
L 400.425289 59.552476
" clip-path="url(#p2533bac91a)" style="fill: #443b84"/>
    <path d="M 400.425289 58.715759
L 411.135268 58.715759
L 411.135268 57.879042
L 400.425289 57.879042
L 400.425289 58.715759
" clip-path="url(#p2533bac91a)" style="fill: #443a83"/>
    <path d="M 400.425289 57.879042
L 411.135268 57.879042
L 411.135268 57.042325
L 400.425289 57.042325
L 400.425289 57.879042
" clip-path="url(#p2533bac91a)" style="fill: #443983"/>
    <path d="M 400.425289 57.042325
L 411.135268 57.042325
L 411.135268 56.205607
L 400.425289 56.205607
L 400.425289 57.042325
" clip-path="url(#p2533bac91a)" style="fill: #453882"/>
    <path d="M 400.425289 56.205607
L 411.135268 56.205607
L 411.135268 55.36889
L 400.425289 55.36889
L 400.425289 56.205607
" clip-path="url(#p2533bac91a)" style="fill: #453781"/>
    <path d="M 400.425289 55.36889
L 411.135268 55.36889
L 411.135268 54.532173
L 400.425289 54.532173
L 400.425289 55.36889
" clip-path="url(#p2533bac91a)" style="fill: #453581"/>
    <path d="M 400.425289 54.532173
L 411.135268 54.532173
L 411.135268 53.695456
L 400.425289 53.695456
L 400.425289 54.532173
" clip-path="url(#p2533bac91a)" style="fill: #463480"/>
    <path d="M 400.425289 53.695456
L 411.135268 53.695456
L 411.135268 52.858739
L 400.425289 52.858739
L 400.425289 53.695456
" clip-path="url(#p2533bac91a)" style="fill: #46337f"/>
    <path d="M 400.425289 52.858739
L 411.135268 52.858739
L 411.135268 52.022022
L 400.425289 52.022022
L 400.425289 52.858739
" clip-path="url(#p2533bac91a)" style="fill: #46327e"/>
    <path d="M 400.425289 52.022022
L 411.135268 52.022022
L 411.135268 51.185304
L 400.425289 51.185304
L 400.425289 52.022022
" clip-path="url(#p2533bac91a)" style="fill: #46307e"/>
    <path d="M 400.425289 51.185304
L 411.135268 51.185304
L 411.135268 50.348587
L 400.425289 50.348587
L 400.425289 51.185304
" clip-path="url(#p2533bac91a)" style="fill: #472f7d"/>
    <path d="M 400.425289 50.348587
L 411.135268 50.348587
L 411.135268 49.51187
L 400.425289 49.51187
L 400.425289 50.348587
" clip-path="url(#p2533bac91a)" style="fill: #472e7c"/>
    <path d="M 400.425289 49.51187
L 411.135268 49.51187
L 411.135268 48.675153
L 400.425289 48.675153
L 400.425289 49.51187
" clip-path="url(#p2533bac91a)" style="fill: #472d7b"/>
    <path d="M 400.425289 48.675153
L 411.135268 48.675153
L 411.135268 47.838436
L 400.425289 47.838436
L 400.425289 48.675153
" clip-path="url(#p2533bac91a)" style="fill: #472c7a"/>
    <path d="M 400.425289 47.838436
L 411.135268 47.838436
L 411.135268 47.001719
L 400.425289 47.001719
L 400.425289 47.838436
" clip-path="url(#p2533bac91a)" style="fill: #472a7a"/>
    <path d="M 400.425289 47.001719
L 411.135268 47.001719
L 411.135268 46.165002
L 400.425289 46.165002
L 400.425289 47.001719
" clip-path="url(#p2533bac91a)" style="fill: #482979"/>
    <path d="M 400.425289 46.165002
L 411.135268 46.165002
L 411.135268 45.328284
L 400.425289 45.328284
L 400.425289 46.165002
" clip-path="url(#p2533bac91a)" style="fill: #482878"/>
    <path d="M 400.425289 45.328284
L 411.135268 45.328284
L 411.135268 44.491567
L 400.425289 44.491567
L 400.425289 45.328284
" clip-path="url(#p2533bac91a)" style="fill: #482677"/>
    <path d="M 400.425289 44.491567
L 411.135268 44.491567
L 411.135268 43.65485
L 400.425289 43.65485
L 400.425289 44.491567
" clip-path="url(#p2533bac91a)" style="fill: #482576"/>
    <path d="M 400.425289 43.65485
L 411.135268 43.65485
L 411.135268 42.818133
L 400.425289 42.818133
L 400.425289 43.65485
" clip-path="url(#p2533bac91a)" style="fill: #482475"/>
    <path d="M 400.425289 42.818133
L 411.135268 42.818133
L 411.135268 41.981416
L 400.425289 41.981416
L 400.425289 42.818133
" clip-path="url(#p2533bac91a)" style="fill: #482374"/>
    <path d="M 400.425289 41.981416
L 411.135268 41.981416
L 411.135268 41.144699
L 400.425289 41.144699
L 400.425289 41.981416
" clip-path="url(#p2533bac91a)" style="fill: #482173"/>
    <path d="M 400.425289 41.144699
L 411.135268 41.144699
L 411.135268 40.307981
L 400.425289 40.307981
L 400.425289 41.144699
" clip-path="url(#p2533bac91a)" style="fill: #482071"/>
    <path d="M 400.425289 40.307981
L 411.135268 40.307981
L 411.135268 39.471264
L 400.425289 39.471264
L 400.425289 40.307981
" clip-path="url(#p2533bac91a)" style="fill: #481f70"/>
    <path d="M 400.425289 39.471264
L 411.135268 39.471264
L 411.135268 38.634547
L 400.425289 38.634547
L 400.425289 39.471264
" clip-path="url(#p2533bac91a)" style="fill: #481d6f"/>
    <path d="M 400.425289 38.634547
L 411.135268 38.634547
L 411.135268 37.79783
L 400.425289 37.79783
L 400.425289 38.634547
" clip-path="url(#p2533bac91a)" style="fill: #481c6e"/>
    <path d="M 400.425289 37.79783
L 411.135268 37.79783
L 411.135268 36.961113
L 400.425289 36.961113
L 400.425289 37.79783
" clip-path="url(#p2533bac91a)" style="fill: #481b6d"/>
    <path d="M 400.425289 36.961113
L 411.135268 36.961113
L 411.135268 36.124396
L 400.425289 36.124396
L 400.425289 36.961113
" clip-path="url(#p2533bac91a)" style="fill: #481a6c"/>
    <path d="M 400.425289 36.124396
L 411.135268 36.124396
L 411.135268 35.287678
L 400.425289 35.287678
L 400.425289 36.124396
" clip-path="url(#p2533bac91a)" style="fill: #48186a"/>
    <path d="M 400.425289 35.287678
L 411.135268 35.287678
L 411.135268 34.450961
L 400.425289 34.450961
L 400.425289 35.287678
" clip-path="url(#p2533bac91a)" style="fill: #481769"/>
    <path d="M 400.425289 34.450961
L 411.135268 34.450961
L 411.135268 33.614244
L 400.425289 33.614244
L 400.425289 34.450961
" clip-path="url(#p2533bac91a)" style="fill: #481668"/>
    <path d="M 400.425289 33.614244
L 411.135268 33.614244
L 411.135268 32.777527
L 400.425289 32.777527
L 400.425289 33.614244
" clip-path="url(#p2533bac91a)" style="fill: #481467"/>
    <path d="M 400.425289 32.777527
L 411.135268 32.777527
L 411.135268 31.94081
L 400.425289 31.94081
L 400.425289 32.777527
" clip-path="url(#p2533bac91a)" style="fill: #471365"/>
    <path d="M 400.425289 31.94081
L 411.135268 31.94081
L 411.135268 31.104093
L 400.425289 31.104093
L 400.425289 31.94081
" clip-path="url(#p2533bac91a)" style="fill: #471164"/>
    <path d="M 400.425289 31.104093
L 411.135268 31.104093
L 411.135268 30.267376
L 400.425289 30.267376
L 400.425289 31.104093
" clip-path="url(#p2533bac91a)" style="fill: #471063"/>
    <path d="M 400.425289 30.267376
L 411.135268 30.267376
L 411.135268 29.430658
L 400.425289 29.430658
L 400.425289 30.267376
" clip-path="url(#p2533bac91a)" style="fill: #470e61"/>
    <path d="M 400.425289 29.430658
L 411.135268 29.430658
L 411.135268 28.593941
L 400.425289 28.593941
L 400.425289 29.430658
" clip-path="url(#p2533bac91a)" style="fill: #470d60"/>
    <path d="M 400.425289 28.593941
L 411.135268 28.593941
L 411.135268 27.757224
L 400.425289 27.757224
L 400.425289 28.593941
" clip-path="url(#p2533bac91a)" style="fill: #460b5e"/>
    <path d="M 400.425289 27.757224
L 411.135268 27.757224
L 411.135268 26.920507
L 400.425289 26.920507
L 400.425289 27.757224
" clip-path="url(#p2533bac91a)" style="fill: #460a5d"/>
    <path d="M 400.425289 26.920507
L 411.135268 26.920507
L 411.135268 26.08379
L 400.425289 26.08379
L 400.425289 26.920507
" clip-path="url(#p2533bac91a)" style="fill: #46085c"/>
    <path d="M 400.425289 26.08379
L 411.135268 26.08379
L 411.135268 25.247073
L 400.425289 25.247073
L 400.425289 26.08379
" clip-path="url(#p2533bac91a)" style="fill: #46075a"/>
    <path d="M 400.425289 25.247073
L 411.135268 25.247073
L 411.135268 24.410355
L 400.425289 24.410355
L 400.425289 25.247073
" clip-path="url(#p2533bac91a)" style="fill: #450559"/>
    <path d="M 400.425289 24.410355
L 411.135268 24.410355
L 411.135268 23.573638
L 400.425289 23.573638
L 400.425289 24.410355
" clip-path="url(#p2533bac91a)" style="fill: #450457"/>
    <path d="M 400.425289 23.573638
L 411.135268 23.573638
L 411.135268 22.736921
L 400.425289 22.736921
L 400.425289 23.573638
" clip-path="url(#p2533bac91a)" style="fill: #440256"/>
    <path d="M 400.425289 22.736921
L 411.135268 22.736921
L 411.135268 21.900204
L 400.425289 21.900204
L 400.425289 22.736921
" clip-path="url(#p2533bac91a)" style="fill: #440154"/>
   </g>
   <g id="matplotlib.axis_3"/>
   <g id="matplotlib.axis_4">
    <g id="ytick_6">
     <g id="line2d_10">
      <defs>
       <path id="mef08ad3466" d="M 0 0
L 3.5 0
" style="stroke: #000000; stroke-width: 0.8"/>
      </defs>
      <g>
       <use xlink:href="#mef08ad3466" x="411.135268" y="234.092837" style="stroke: #000000; stroke-width: 0.8"/>
      </g>
     </g>
     <g id="text_12">
      <text style="font-size: 9px; font-family: 'Noto Sans SC', 'Arial', 'Helvetica', 'DejaVu Sans', sans-serif; text-anchor: start" x="418.135268" y="238.052837" transform="rotate(-0 418.135268 238.052837)">5.35</text>
     </g>
    </g>
    <g id="ytick_7">
     <g id="line2d_11">
      <g>
       <use xlink:href="#mef08ad3466" x="411.135268" y="207.932665" style="stroke: #000000; stroke-width: 0.8"/>
      </g>
     </g>
     <g id="text_13">
      <text style="font-size: 9px; font-family: 'Noto Sans SC', 'Arial', 'Helvetica', 'DejaVu Sans', sans-serif; text-anchor: start" x="418.135268" y="211.892665" transform="rotate(-0 418.135268 211.892665)">5.40</text>
     </g>
    </g>
    <g id="ytick_8">
     <g id="line2d_12">
      <g>
       <use xlink:href="#mef08ad3466" x="411.135268" y="181.772492" style="stroke: #000000; stroke-width: 0.8"/>
      </g>
     </g>
     <g id="text_14">
      <text style="font-size: 9px; font-family: 'Noto Sans SC', 'Arial', 'Helvetica', 'DejaVu Sans', sans-serif; text-anchor: start" x="418.135268" y="185.732492" transform="rotate(-0 418.135268 185.732492)">5.45</text>
     </g>
    </g>
    <g id="ytick_9">
     <g id="line2d_13">
      <g>
       <use xlink:href="#mef08ad3466" x="411.135268" y="155.612319" style="stroke: #000000; stroke-width: 0.8"/>
      </g>
     </g>
     <g id="text_15">
      <text style="font-size: 9px; font-family: 'Noto Sans SC', 'Arial', 'Helvetica', 'DejaVu Sans', sans-serif; text-anchor: start" x="418.135268" y="159.572319" transform="rotate(-0 418.135268 159.572319)">5.50</text>
     </g>
    </g>
    <g id="ytick_10">
     <g id="line2d_14">
      <g>
       <use xlink:href="#mef08ad3466" x="411.135268" y="129.452147" style="stroke: #000000; stroke-width: 0.8"/>
      </g>
     </g>
     <g id="text_16">
      <text style="font-size: 9px; font-family: 'Noto Sans SC', 'Arial', 'Helvetica', 'DejaVu Sans', sans-serif; text-anchor: start" x="418.135268" y="133.412147" transform="rotate(-0 418.135268 133.412147)">5.55</text>
     </g>
    </g>
    <g id="ytick_11">
     <g id="line2d_15">
      <g>
       <use xlink:href="#mef08ad3466" x="411.135268" y="103.291974" style="stroke: #000000; stroke-width: 0.8"/>
      </g>
     </g>
     <g id="text_17">
      <text style="font-size: 9px; font-family: 'Noto Sans SC', 'Arial', 'Helvetica', 'DejaVu Sans', sans-serif; text-anchor: start" x="418.135268" y="107.251974" transform="rotate(-0 418.135268 107.251974)">5.60</text>
     </g>
    </g>
    <g id="ytick_12">
     <g id="line2d_16">
      <g>
       <use xlink:href="#mef08ad3466" x="411.135268" y="77.131802" style="stroke: #000000; stroke-width: 0.8"/>
      </g>
     </g>
     <g id="text_18">
      <text style="font-size: 9px; font-family: 'Noto Sans SC', 'Arial', 'Helvetica', 'DejaVu Sans', sans-serif; text-anchor: start" x="418.135268" y="81.091802" transform="rotate(-0 418.135268 81.091802)">5.65</text>
     </g>
    </g>
    <g id="ytick_13">
     <g id="line2d_17">
      <g>
       <use xlink:href="#mef08ad3466" x="411.135268" y="50.971629" style="stroke: #000000; stroke-width: 0.8"/>
      </g>
     </g>
     <g id="text_19">
      <text style="font-size: 9px; font-family: 'Noto Sans SC', 'Arial', 'Helvetica', 'DejaVu Sans', sans-serif; text-anchor: start" x="418.135268" y="54.931629" transform="rotate(-0 418.135268 54.931629)">5.70</text>
     </g>
    </g>
    <g id="ytick_14">
     <g id="line2d_18">
      <g>
       <use xlink:href="#mef08ad3466" x="411.135268" y="24.811456" style="stroke: #000000; stroke-width: 0.8"/>
      </g>
     </g>
     <g id="text_20">
      <text style="font-size: 9px; font-family: 'Noto Sans SC', 'Arial', 'Helvetica', 'DejaVu Sans', sans-serif; text-anchor: start" x="418.135268" y="28.771456" transform="rotate(-0 418.135268 28.771456)">5.75</text>
     </g>
    </g>
    <g id="text_21">
     <text style="font-size: 10px; font-family: 'Noto Sans SC', 'Arial', 'Helvetica', 'DejaVu Sans', sans-serif; text-anchor: middle" x="448.421987" y="129" transform="rotate(-90 448.421987 129)">调参集平均响应时间（min）</text>
    </g>
   </g>
   <g id="LineCollection_1"/>
   <g id="patch_27">
    <path d="M 400.425289 236.099796
L 405.780278 236.099796
L 411.135268 236.099796
L 411.135268 21.900204
L 405.780278 21.900204
L 400.425289 21.900204
L 400.425289 236.099796
z
" style="fill: none; stroke: #000000; stroke-width: 0.8; stroke-linejoin: miter; stroke-linecap: square"/>
   </g>
  </g>
 </g>
 <defs>
  <clipPath id="pa063c7dbb3">
   <rect x="37.282584" y="3.00024" width="345.850195" height="251.99952"/>
  </clipPath>
  <clipPath id="p2533bac91a">
   <rect x="400.425289" y="21.900204" width="10.70998" height="214.199592"/>
  </clipPath>
 </defs>
</svg>
