<?xml version="1.0" encoding="utf-8" standalone="no"?>
<!DOCTYPE svg PUBLIC "-//W3C//DTD SVG 1.1//EN"
  "http://www.w3.org/Graphics/SVG/1.1/DTD/svg11.dtd">
<svg xmlns:xlink="http://www.w3.org/1999/xlink" width="453.6pt" height="259.2pt" viewBox="0 0 453.6 259.2" xmlns="http://www.w3.org/2000/svg" version="1.1">
 <defs>
  <style type="text/css">*{stroke-linejoin: round; stroke-linecap: butt}</style>
 </defs>
 <g id="figure_1">
  <g id="patch_1">
   <path d="M 0 259.2
L 453.6 259.2
L 453.6 0
L 0 0
z
" style="fill: #ffffff"/>
  </g>
  <g id="axes_1">
   <g id="patch_2">
    <path d="M 29.585865 226.19976
L 445.60476 226.19976
L 445.60476 3.00024
L 29.585865 3.00024
z
" style="fill: #ffffff"/>
   </g>
   <g id="FillBetweenPolyCollection_1">
    <defs>
     <path id="me8bb50b987" d="M 29.585865 -43.145673
L 29.585865 -150.296649
L 31.030375 -149.856542
L 32.474885 -149.445295
L 33.919395 -149.061557
L 35.363905 -148.704002
L 36.808415 -148.371334
L 38.252925 -148.062288
L 39.697435 -147.775641
L 41.141945 -147.510207
L 42.586455 -147.264847
L 44.030966 -147.038468
L 45.475476 -146.830027
L 46.919986 -146.638534
L 48.364496 -146.463052
L 49.809006 -146.302704
L 51.253516 -146.156668
L 52.698026 -146.024185
L 54.142536 -145.904555
L 55.587046 -145.797145
L 57.031556 -145.701386
L 58.476066 -145.616774
L 59.920576 -145.542877
L 61.365086 -145.479331
L 62.809596 -145.425845
L 64.254106 -145.382199
L 65.698616 -145.348253
L 67.143126 -145.323939
L 68.587636 -145.309273
L 70.032146 -145.304349
L 71.476657 -145.309346
L 72.921167 -145.324529
L 74.365677 -145.35025
L 75.810187 -145.386949
L 77.254697 -145.43516
L 78.699207 -145.49551
L 80.143717 -145.568722
L 81.588227 -145.655615
L 83.032737 -145.757107
L 84.477247 -145.874214
L 85.921757 -146.008055
L 87.366267 -146.159847
L 88.810777 -146.330906
L 90.255287 -146.522647
L 91.699797 -146.736583
L 93.144307 -146.97432
L 94.588817 -147.237552
L 96.033327 -147.528063
L 97.477837 -147.847714
L 98.922348 -148.19844
L 100.366858 -148.582241
L 101.811368 -149.001173
L 103.255878 -149.457337
L 104.700388 -149.952865
L 106.144898 -150.489912
L 107.589408 -151.070632
L 109.033918 -151.697172
L 110.478428 -152.371644
L 111.922938 -153.096112
L 113.367448 -153.872572
L 114.811958 -154.702925
L 116.256468 -155.588957
L 117.700978 -156.532319
L 119.145488 -157.534494
L 120.589998 -158.596779
L 122.034508 -159.720254
L 123.479018 -160.905763
L 124.923528 -162.153879
L 126.368038 -163.464888
L 127.812549 -164.838758
L 129.257059 -166.275118
L 130.701569 -167.773236
L 132.146079 -169.331996
L 133.590589 -170.949885
L 135.035099 -172.624968
L 136.479609 -174.354885
L 137.924119 -176.136832
L 139.368629 -177.967556
L 140.813139 -179.843356
L 142.257649 -181.760076
L 143.702159 -183.713116
L 145.146669 -185.697434
L 146.591179 -187.707565
L 148.035689 -189.737636
L 149.480199 -191.781385
L 150.924709 -193.832193
L 152.369219 -195.883109
L 153.813729 -197.92689
L 155.25824 -199.95604
L 156.70275 -201.962847
L 158.14726 -203.939438
L 159.59177 -205.877824
L 161.03628 -207.769955
L 162.48079 -209.607774
L 163.9253 -211.383274
L 165.36981 -213.088557
L 166.81432 -214.715893
L 168.25883 -216.257779
L 169.70334 -217.707
L 171.14785 -219.056683
L 172.59236 -220.300355
L 174.03687 -221.431997
L 175.48138 -222.446095
L 176.92589 -223.337686
L 178.3704 -224.102404
L 179.81491 -224.736515
L 181.25942 -225.236952
L 182.703931 -225.601348
L 184.148441 -225.828051
L 185.592951 -225.916146
L 187.037461 -225.865465
L 188.481971 -225.676591
L 189.926481 -225.350854
L 191.370991 -224.890326
L 192.815501 -224.297806
L 194.260011 -223.576797
L 195.704521 -222.731483
L 197.149031 -221.766697
L 198.593541 -220.687884
L 200.038051 -219.501058
L 201.482561 -218.212761
L 202.927071 -216.830014
L 204.371581 -215.360259
L 205.816091 -213.811315
L 207.260601 -212.191313
L 208.705111 -210.508644
L 210.149622 -208.771903
L 211.594132 -206.989825
L 213.038642 -205.171235
L 214.483152 -203.324987
L 215.927662 -201.459913
L 217.372172 -199.584772
L 218.816682 -197.708195
L 220.261192 -195.838646
L 221.705702 -193.984374
L 223.150212 -192.153376
L 224.594722 -190.35336
L 226.039232 -188.591714
L 227.483742 -186.875479
L 228.928252 -185.211325
L 230.372762 -183.605532
L 231.817272 -182.063975
L 233.261782 -180.592112
L 234.706292 -179.194977
L 236.150802 -177.877178
L 237.595312 -176.642893
L 239.039823 -175.495876
L 240.484333 -174.439459
L 241.928843 -173.476563
L 243.373353 -172.609708
L 244.817863 -171.841023
L 246.262373 -171.172261
L 247.706883 -170.604811
L 249.151393 -170.139719
L 250.595903 -169.777699
L 252.040413 -169.519152
L 253.484923 -169.364181
L 254.929433 -169.312608
L 256.373943 -169.363991
L 257.818453 -169.517634
L 259.262963 -169.77261
L 260.707473 -170.127764
L 262.151983 -170.581733
L 263.596493 -171.132953
L 265.041003 -171.779671
L 266.485514 -172.519952
L 267.930024 -173.351686
L 269.374534 -174.272596
L 270.819044 -175.280242
L 272.263554 -176.372026
L 273.708064 -177.545193
L 275.152574 -178.796835
L 276.597084 -180.123894
L 278.041594 -181.52316
L 279.486104 -182.991273
L 280.930614 -184.524724
L 282.375124 -186.119855
L 283.819634 -187.77286
L 285.264144 -189.479784
L 286.708654 -191.236526
L 288.153164 -193.038839
L 289.597674 -194.882336
L 291.042184 -196.762486
L 292.486694 -198.674625
L 293.931205 -200.613958
L 295.375715 -202.575565
L 296.820225 -204.55441
L 298.264735 -206.545344
L 299.709245 -208.543125
L 301.153755 -210.542418
L 302.598265 -212.537815
L 304.042775 -214.523845
L 305.487285 -216.494989
L 306.931795 -218.445697
L 308.376305 -220.370405
L 309.820815 -222.263553
L 311.265325 -224.119601
L 312.709835 -225.933055
L 314.154345 -227.69848
L 315.598855 -229.410527
L 317.043365 -231.063951
L 318.487875 -232.653635
L 319.932385 -234.174609
L 321.376896 -235.622073
L 322.821406 -236.991418
L 324.265916 -238.278248
L 325.710426 -239.478399
L 327.154936 -240.587959
L 328.599446 -241.603287
L 330.043956 -242.521029
L 331.488466 -243.338138
L 332.932976 -244.051885
L 334.377486 -244.659876
L 335.821996 -245.160059
L 337.266506 -245.550741
L 338.711016 -245.83059
L 340.155526 -245.998648
L 341.600036 -246.054327
L 343.044546 -245.997422
L 344.489056 -245.828103
L 345.933566 -245.546916
L 347.378076 -245.154785
L 348.822587 -244.652996
L 350.267097 -244.043201
L 351.711607 -243.327398
L 353.156117 -242.507929
L 354.600627 -241.587462
L 356.045137 -240.568975
L 357.489647 -239.455744
L 358.934157 -238.251324
L 360.378667 -236.959526
L 361.823177 -235.584405
L 363.267687 -234.130229
L 364.712197 -232.601466
L 366.156707 -231.002752
L 367.601217 -229.338877
L 369.045727 -227.614755
L 370.490237 -225.835401
L 371.934747 -224.005907
L 373.379257 -222.13142
L 374.823767 -220.217117
L 376.268277 -218.268177
L 377.712788 -216.289768
L 379.157298 -214.287015
L 380.601808 -212.264984
L 382.046318 -210.22866
L 383.490828 -208.182928
L 384.935338 -206.132554
L 386.379848 -204.082167
L 387.824358 -202.036246
L 389.268868 -199.999103
L 390.713378 -197.974871
L 392.157888 -195.967493
L 393.602398 -193.980708
L 395.046908 -192.018047
L 396.491418 -190.082825
L 397.935928 -188.178132
L 399.380438 -186.30683
L 400.824948 -184.471554
L 402.269458 -182.674705
L 403.713968 -180.918451
L 405.158479 -179.204731
L 406.602989 -177.535255
L 408.047499 -175.911507
L 409.492009 -174.33475
L 410.936519 -172.806031
L 412.381029 -171.326191
L 413.825539 -169.895864
L 415.270049 -168.515494
L 416.714559 -167.185337
L 418.159069 -165.905473
L 419.603579 -164.675816
L 421.048089 -163.49612
L 422.492599 -162.365995
L 423.937109 -161.284913
L 425.381619 -160.252218
L 426.826129 -159.267141
L 428.270639 -158.328807
L 429.715149 -157.436245
L 431.159659 -156.588402
L 432.60417 -155.784148
L 434.04868 -155.022292
L 435.49319 -154.301586
L 436.9377 -153.620736
L 438.38221 -152.978413
L 439.82672 -152.373259
L 441.27123 -151.803897
L 442.71574 -151.268938
L 444.16025 -150.766986
L 445.60476 -150.296649
L 445.60476 -43.145673
L 445.60476 -43.145673
L 444.16025 -43.145673
L 442.71574 -43.145673
L 441.27123 -43.145673
L 439.82672 -43.145673
L 438.38221 -43.145673
L 436.9377 -43.145673
L 435.49319 -43.145673
L 434.04868 -43.145673
L 432.60417 -43.145673
L 431.159659 -43.145673
L 429.715149 -43.145673
L 428.270639 -43.145673
L 426.826129 -43.145673
L 425.381619 -43.145673
L 423.937109 -43.145673
L 422.492599 -43.145673
L 421.048089 -43.145673
L 419.603579 -43.145673
L 418.159069 -43.145673
L 416.714559 -43.145673
L 415.270049 -43.145673
L 413.825539 -43.145673
L 412.381029 -43.145673
L 410.936519 -43.145673
L 409.492009 -43.145673
L 408.047499 -43.145673
L 406.602989 -43.145673
L 405.158479 -43.145673
L 403.713968 -43.145673
L 402.269458 -43.145673
L 400.824948 -43.145673
L 399.380438 -43.145673
L 397.935928 -43.145673
L 396.491418 -43.145673
L 395.046908 -43.145673
L 393.602398 -43.145673
L 392.157888 -43.145673
L 390.713378 -43.145673
L 389.268868 -43.145673
L 387.824358 -43.145673
L 386.379848 -43.145673
L 384.935338 -43.145673
L 383.490828 -43.145673
L 382.046318 -43.145673
L 380.601808 -43.145673
L 379.157298 -43.145673
L 377.712788 -43.145673
L 376.268277 -43.145673
L 374.823767 -43.145673
L 373.379257 -43.145673
L 371.934747 -43.145673
L 370.490237 -43.145673
L 369.045727 -43.145673
L 367.601217 -43.145673
L 366.156707 -43.145673
L 364.712197 -43.145673
L 363.267687 -43.145673
L 361.823177 -43.145673
L 360.378667 -43.145673
L 358.934157 -43.145673
L 357.489647 -43.145673
L 356.045137 -43.145673
L 354.600627 -43.145673
L 353.156117 -43.145673
L 351.711607 -43.145673
L 350.267097 -43.145673
L 348.822587 -43.145673
L 347.378076 -43.145673
L 345.933566 -43.145673
L 344.489056 -43.145673
L 343.044546 -43.145673
L 341.600036 -43.145673
L 340.155526 -43.145673
L 338.711016 -43.145673
L 337.266506 -43.145673
L 335.821996 -43.145673
L 334.377486 -43.145673
L 332.932976 -43.145673
L 331.488466 -43.145673
L 330.043956 -43.145673
L 328.599446 -43.145673
L 327.154936 -43.145673
L 325.710426 -43.145673
L 324.265916 -43.145673
L 322.821406 -43.145673
L 321.376896 -43.145673
L 319.932385 -43.145673
L 318.487875 -43.145673
L 317.043365 -43.145673
L 315.598855 -43.145673
L 314.154345 -43.145673
L 312.709835 -43.145673
L 311.265325 -43.145673
L 309.820815 -43.145673
L 308.376305 -43.145673
L 306.931795 -43.145673
L 305.487285 -43.145673
L 304.042775 -43.145673
L 302.598265 -43.145673
L 301.153755 -43.145673
L 299.709245 -43.145673
L 298.264735 -43.145673
L 296.820225 -43.145673
L 295.375715 -43.145673
L 293.931205 -43.145673
L 292.486694 -43.145673
L 291.042184 -43.145673
L 289.597674 -43.145673
L 288.153164 -43.145673
L 286.708654 -43.145673
L 285.264144 -43.145673
L 283.819634 -43.145673
L 282.375124 -43.145673
L 280.930614 -43.145673
L 279.486104 -43.145673
L 278.041594 -43.145673
L 276.597084 -43.145673
L 275.152574 -43.145673
L 273.708064 -43.145673
L 272.263554 -43.145673
L 270.819044 -43.145673
L 269.374534 -43.145673
L 267.930024 -43.145673
L 266.485514 -43.145673
L 265.041003 -43.145673
L 263.596493 -43.145673
L 262.151983 -43.145673
L 260.707473 -43.145673
L 259.262963 -43.145673
L 257.818453 -43.145673
L 256.373943 -43.145673
L 254.929433 -43.145673
L 253.484923 -43.145673
L 252.040413 -43.145673
L 250.595903 -43.145673
L 249.151393 -43.145673
L 247.706883 -43.145673
L 246.262373 -43.145673
L 244.817863 -43.145673
L 243.373353 -43.145673
L 241.928843 -43.145673
L 240.484333 -43.145673
L 239.039823 -43.145673
L 237.595312 -43.145673
L 236.150802 -43.145673
L 234.706292 -43.145673
L 233.261782 -43.145673
L 231.817272 -43.145673
L 230.372762 -43.145673
L 228.928252 -43.145673
L 227.483742 -43.145673
L 226.039232 -43.145673
L 224.594722 -43.145673
L 223.150212 -43.145673
L 221.705702 -43.145673
L 220.261192 -43.145673
L 218.816682 -43.145673
L 217.372172 -43.145673
L 215.927662 -43.145673
L 214.483152 -43.145673
L 213.038642 -43.145673
L 211.594132 -43.145673
L 210.149622 -43.145673
L 208.705111 -43.145673
L 207.260601 -43.145673
L 205.816091 -43.145673
L 204.371581 -43.145673
L 202.927071 -43.145673
L 201.482561 -43.145673
L 200.038051 -43.145673
L 198.593541 -43.145673
L 197.149031 -43.145673
L 195.704521 -43.145673
L 194.260011 -43.145673
L 192.815501 -43.145673
L 191.370991 -43.145673
L 189.926481 -43.145673
L 188.481971 -43.145673
L 187.037461 -43.145673
L 185.592951 -43.145673
L 184.148441 -43.145673
L 182.703931 -43.145673
L 181.25942 -43.145673
L 179.81491 -43.145673
L 178.3704 -43.145673
L 176.92589 -43.145673
L 175.48138 -43.145673
L 174.03687 -43.145673
L 172.59236 -43.145673
L 171.14785 -43.145673
L 169.70334 -43.145673
L 168.25883 -43.145673
L 166.81432 -43.145673
L 165.36981 -43.145673
L 163.9253 -43.145673
L 162.48079 -43.145673
L 161.03628 -43.145673
L 159.59177 -43.145673
L 158.14726 -43.145673
L 156.70275 -43.145673
L 155.25824 -43.145673
L 153.813729 -43.145673
L 152.369219 -43.145673
L 150.924709 -43.145673
L 149.480199 -43.145673
L 148.035689 -43.145673
L 146.591179 -43.145673
L 145.146669 -43.145673
L 143.702159 -43.145673
L 142.257649 -43.145673
L 140.813139 -43.145673
L 139.368629 -43.145673
L 137.924119 -43.145673
L 136.479609 -43.145673
L 135.035099 -43.145673
L 133.590589 -43.145673
L 132.146079 -43.145673
L 130.701569 -43.145673
L 129.257059 -43.145673
L 127.812549 -43.145673
L 126.368038 -43.145673
L 124.923528 -43.145673
L 123.479018 -43.145673
L 122.034508 -43.145673
L 120.589998 -43.145673
L 119.145488 -43.145673
L 117.700978 -43.145673
L 116.256468 -43.145673
L 114.811958 -43.145673
L 113.367448 -43.145673
L 111.922938 -43.145673
L 110.478428 -43.145673
L 109.033918 -43.145673
L 107.589408 -43.145673
L 106.144898 -43.145673
L 104.700388 -43.145673
L 103.255878 -43.145673
L 101.811368 -43.145673
L 100.366858 -43.145673
L 98.922348 -43.145673
L 97.477837 -43.145673
L 96.033327 -43.145673
L 94.588817 -43.145673
L 93.144307 -43.145673
L 91.699797 -43.145673
L 90.255287 -43.145673
L 88.810777 -43.145673
L 87.366267 -43.145673
L 85.921757 -43.145673
L 84.477247 -43.145673
L 83.032737 -43.145673
L 81.588227 -43.145673
L 80.143717 -43.145673
L 78.699207 -43.145673
L 77.254697 -43.145673
L 75.810187 -43.145673
L 74.365677 -43.145673
L 72.921167 -43.145673
L 71.476657 -43.145673
L 70.032146 -43.145673
L 68.587636 -43.145673
L 67.143126 -43.145673
L 65.698616 -43.145673
L 64.254106 -43.145673
L 62.809596 -43.145673
L 61.365086 -43.145673
L 59.920576 -43.145673
L 58.476066 -43.145673
L 57.031556 -43.145673
L 55.587046 -43.145673
L 54.142536 -43.145673
L 52.698026 -43.145673
L 51.253516 -43.145673
L 49.809006 -43.145673
L 48.364496 -43.145673
L 46.919986 -43.145673
L 45.475476 -43.145673
L 44.030966 -43.145673
L 42.586455 -43.145673
L 41.141945 -43.145673
L 39.697435 -43.145673
L 38.252925 -43.145673
L 36.808415 -43.145673
L 35.363905 -43.145673
L 33.919395 -43.145673
L 32.474885 -43.145673
L 31.030375 -43.145673
L 29.585865 -43.145673
z
" style="stroke: #0072b2; stroke-opacity: 0.18"/>
    </defs>
    <g clip-path="url(#pb3f62fa5b7)">
     <use xlink:href="#me8bb50b987" x="0" y="259.2" style="fill: #0072b2; fill-opacity: 0.18; stroke: #0072b2; stroke-opacity: 0.18"/>
    </g>
   </g>
   <g id="matplotlib.axis_1">
    <g id="xtick_1">
     <g id="line2d_1">
      <defs>
       <path id="mb3153a0f77" d="M 0 0
L 0 3.5
" style="stroke: #000000; stroke-width: 0.8"/>
      </defs>
      <g>
       <use xlink:href="#mb3153a0f77" x="29.585865" y="226.19976" style="stroke: #000000; stroke-width: 0.8"/>
      </g>
     </g>
     <g id="text_1">
      <text style="font-size: 9px; font-family: 'Noto Sans SC', 'Arial', 'Helvetica', 'DejaVu Sans', sans-serif; text-anchor: middle" x="29.585865" y="241.11976" transform="rotate(-0 29.585865 241.11976)">0</text>
     </g>
    </g>
    <g id="xtick_2">
     <g id="line2d_2">
      <g>
       <use xlink:href="#mb3153a0f77" x="81.588227" y="226.19976" style="stroke: #000000; stroke-width: 0.8"/>
      </g>
     </g>
     <g id="text_2">
      <text style="font-size: 9px; font-family: 'Noto Sans SC', 'Arial', 'Helvetica', 'DejaVu Sans', sans-serif; text-anchor: middle" x="81.588227" y="241.11976" transform="rotate(-0 81.588227 241.11976)">3</text>
     </g>
    </g>
    <g id="xtick_3">
     <g id="line2d_3">
      <g>
       <use xlink:href="#mb3153a0f77" x="133.590589" y="226.19976" style="stroke: #000000; stroke-width: 0.8"/>
      </g>
     </g>
     <g id="text_3">
      <text style="font-size: 9px; font-family: 'Noto Sans SC', 'Arial', 'Helvetica', 'DejaVu Sans', sans-serif; text-anchor: middle" x="133.590589" y="241.11976" transform="rotate(-0 133.590589 241.11976)">6</text>
     </g>
    </g>
    <g id="xtick_4">
     <g id="line2d_4">
      <g>
       <use xlink:href="#mb3153a0f77" x="185.592951" y="226.19976" style="stroke: #000000; stroke-width: 0.8"/>
      </g>
     </g>
     <g id="text_4">
      <text style="font-size: 9px; font-family: 'Noto Sans SC', 'Arial', 'Helvetica', 'DejaVu Sans', sans-serif; text-anchor: middle" x="185.592951" y="241.11976" transform="rotate(-0 185.592951 241.11976)">9</text>
     </g>
    </g>
    <g id="xtick_5">
     <g id="line2d_5">
      <g>
       <use xlink:href="#mb3153a0f77" x="237.595312" y="226.19976" style="stroke: #000000; stroke-width: 0.8"/>
      </g>
     </g>
     <g id="text_5">
      <text style="font-size: 9px; font-family: 'Noto Sans SC', 'Arial', 'Helvetica', 'DejaVu Sans', sans-serif; text-anchor: middle" x="237.595312" y="241.11976" transform="rotate(-0 237.595312 241.11976)">12</text>
     </g>
    </g>
    <g id="xtick_6">
     <g id="line2d_6">
      <g>
       <use xlink:href="#mb3153a0f77" x="289.597674" y="226.19976" style="stroke: #000000; stroke-width: 0.8"/>
      </g>
     </g>
     <g id="text_6">
      <text style="font-size: 9px; font-family: 'Noto Sans SC', 'Arial', 'Helvetica', 'DejaVu Sans', sans-serif; text-anchor: middle" x="289.597674" y="241.11976" transform="rotate(-0 289.597674 241.11976)">15</text>
     </g>
    </g>
    <g id="xtick_7">
     <g id="line2d_7">
      <g>
       <use xlink:href="#mb3153a0f77" x="341.600036" y="226.19976" style="stroke: #000000; stroke-width: 0.8"/>
      </g>
     </g>
     <g id="text_7">
      <text style="font-size: 9px; font-family: 'Noto Sans SC', 'Arial', 'Helvetica', 'DejaVu Sans', sans-serif; text-anchor: middle" x="341.600036" y="241.11976" transform="rotate(-0 341.600036 241.11976)">18</text>
     </g>
    </g>
    <g id="xtick_8">
     <g id="line2d_8">
      <g>
       <use xlink:href="#mb3153a0f77" x="393.602398" y="226.19976" style="stroke: #000000; stroke-width: 0.8"/>
      </g>
     </g>
     <g id="text_8">
      <text style="font-size: 9px; font-family: 'Noto Sans SC', 'Arial', 'Helvetica', 'DejaVu Sans', sans-serif; text-anchor: middle" x="393.602398" y="241.11976" transform="rotate(-0 393.602398 241.11976)">21</text>
     </g>
    </g>
    <g id="xtick_9">
     <g id="line2d_9">
      <g>
       <use xlink:href="#mb3153a0f77" x="445.60476" y="226.19976" style="stroke: #000000; stroke-width: 0.8"/>
      </g>
     </g>
     <g id="text_9">
      <text style="font-size: 9px; font-family: 'Noto Sans SC', 'Arial', 'Helvetica', 'DejaVu Sans', sans-serif; text-anchor: middle" x="445.60476" y="241.11976" transform="rotate(-0 445.60476 241.11976)">24</text>
     </g>
    </g>
    <g id="text_10">
     <text style="font-size: 10px; font-family: 'Noto Sans SC', 'Arial', 'Helvetica', 'DejaVu Sans', sans-serif; text-anchor: middle" x="237.595313" y="254.99976" transform="rotate(-0 237.595313 254.99976)">时刻（h）</text>
    </g>
   </g>
   <g id="matplotlib.axis_2">
    <g id="ytick_1">
     <g id="line2d_10">
      <defs>
       <path id="m062698add4" d="M 0 0
L -3.5 0
" style="stroke: #000000; stroke-width: 0.8"/>
      </defs>
      <g>
       <use xlink:href="#m062698add4" x="29.585865" y="216.054327" style="stroke: #000000; stroke-width: 0.8"/>
      </g>
     </g>
     <g id="text_11">
      <text style="font-size: 9px; font-family: 'Noto Sans SC', 'Arial', 'Helvetica', 'DejaVu Sans', sans-serif; text-anchor: end" x="22.585865" y="220.014327" transform="rotate(-0 22.585865 220.014327)">0</text>
     </g>
    </g>
    <g id="ytick_2">
     <g id="line2d_11">
      <g>
       <use xlink:href="#m062698add4" x="29.585865" y="191.214955" style="stroke: #000000; stroke-width: 0.8"/>
      </g>
     </g>
     <g id="text_12">
      <text style="font-size: 9px; font-family: 'Noto Sans SC', 'Arial', 'Helvetica', 'DejaVu Sans', sans-serif; text-anchor: end" x="22.585865" y="195.174955" transform="rotate(-0 22.585865 195.174955)">1</text>
     </g>
    </g>
    <g id="ytick_3">
     <g id="line2d_12">
      <g>
       <use xlink:href="#m062698add4" x="29.585865" y="166.375583" style="stroke: #000000; stroke-width: 0.8"/>
      </g>
     </g>
     <g id="text_13">
      <text style="font-size: 9px; font-family: 'Noto Sans SC', 'Arial', 'Helvetica', 'DejaVu Sans', sans-serif; text-anchor: end" x="22.585865" y="170.335583" transform="rotate(-0 22.585865 170.335583)">2</text>
     </g>
    </g>
    <g id="ytick_4">
     <g id="line2d_13">
      <g>
       <use xlink:href="#m062698add4" x="29.585865" y="141.536211" style="stroke: #000000; stroke-width: 0.8"/>
      </g>
     </g>
     <g id="text_14">
      <text style="font-size: 9px; font-family: 'Noto Sans SC', 'Arial', 'Helvetica', 'DejaVu Sans', sans-serif; text-anchor: end" x="22.585865" y="145.496211" transform="rotate(-0 22.585865 145.496211)">3</text>
     </g>
    </g>
    <g id="ytick_5">
     <g id="line2d_14">
      <g>
       <use xlink:href="#m062698add4" x="29.585865" y="116.696839" style="stroke: #000000; stroke-width: 0.8"/>
      </g>
     </g>
     <g id="text_15">
      <text style="font-size: 9px; font-family: 'Noto Sans SC', 'Arial', 'Helvetica', 'DejaVu Sans', sans-serif; text-anchor: end" x="22.585865" y="120.656839" transform="rotate(-0 22.585865 120.656839)">4</text>
     </g>
    </g>
    <g id="ytick_6">
     <g id="line2d_15">
      <g>
       <use xlink:href="#m062698add4" x="29.585865" y="91.857467" style="stroke: #000000; stroke-width: 0.8"/>
      </g>
     </g>
     <g id="text_16">
      <text style="font-size: 9px; font-family: 'Noto Sans SC', 'Arial', 'Helvetica', 'DejaVu Sans', sans-serif; text-anchor: end" x="22.585865" y="95.817467" transform="rotate(-0 22.585865 95.817467)">5</text>
     </g>
    </g>
    <g id="ytick_7">
     <g id="line2d_16">
      <g>
       <use xlink:href="#m062698add4" x="29.585865" y="67.018095" style="stroke: #000000; stroke-width: 0.8"/>
      </g>
     </g>
     <g id="text_17">
      <text style="font-size: 9px; font-family: 'Noto Sans SC', 'Arial', 'Helvetica', 'DejaVu Sans', sans-serif; text-anchor: end" x="22.585865" y="70.978095" transform="rotate(-0 22.585865 70.978095)">6</text>
     </g>
    </g>
    <g id="ytick_8">
     <g id="line2d_17">
      <g>
       <use xlink:href="#m062698add4" x="29.585865" y="42.178723" style="stroke: #000000; stroke-width: 0.8"/>
      </g>
     </g>
     <g id="text_18">
      <text style="font-size: 9px; font-family: 'Noto Sans SC', 'Arial', 'Helvetica', 'DejaVu Sans', sans-serif; text-anchor: end" x="22.585865" y="46.138723" transform="rotate(-0 22.585865 46.138723)">7</text>
     </g>
    </g>
    <g id="ytick_9">
     <g id="line2d_18">
      <g>
       <use xlink:href="#m062698add4" x="29.585865" y="17.339351" style="stroke: #000000; stroke-width: 0.8"/>
      </g>
     </g>
     <g id="text_19">
      <text style="font-size: 9px; font-family: 'Noto Sans SC', 'Arial', 'Helvetica', 'DejaVu Sans', sans-serif; text-anchor: end" x="22.585865" y="21.299351" transform="rotate(-0 22.585865 21.299351)">8</text>
     </g>
    </g>
    <g id="text_20">
     <text style="font-size: 10px; font-family: 'Noto Sans SC', 'Arial', 'Helvetica', 'DejaVu Sans', sans-serif; text-anchor: middle" x="11.80024" y="114.6" transform="rotate(-90 11.80024 114.6)">全市呼叫强度（次/h）</text>
    </g>
   </g>
   <g id="line2d_19">
    <path d="M 29.585865 108.903351
L 33.919395 110.138443
L 38.252925 111.137712
L 42.586455 111.935153
L 48.364496 112.736948
L 54.142536 113.295445
L 59.920576 113.657123
L 67.143126 113.876061
L 74.365677 113.84975
L 80.143717 113.631278
L 85.921757 113.191945
L 90.255287 112.677353
L 94.588817 111.962448
L 98.922348 111.00156
L 103.255878 109.742663
L 106.144898 108.710088
L 109.033918 107.502828
L 111.922938 106.103888
L 114.811958 104.497075
L 117.700978 102.667681
L 120.589998 100.603221
L 123.479018 98.294237
L 126.368038 95.735112
L 129.257059 92.924882
L 132.146079 89.868004
L 135.035099 86.575032
L 139.368629 81.232444
L 143.702159 75.486884
L 149.480199 67.418615
L 158.14726 55.260562
L 162.48079 49.592226
L 165.36981 46.111443
L 168.25883 42.942221
L 171.14785 40.143317
L 174.03687 37.768003
L 176.92589 35.862314
L 178.3704 35.097596
L 179.81491 34.463485
L 181.25942 33.963048
L 182.703931 33.598652
L 184.148441 33.371949
L 185.592951 33.283854
L 187.037461 33.334535
L 188.481971 33.523409
L 189.926481 33.849146
L 191.370991 34.309674
L 192.815501 34.902194
L 194.260011 35.623203
L 197.149031 37.433303
L 200.038051 39.698942
L 202.927071 42.369986
L 205.816091 45.388685
L 208.705111 48.691356
L 213.038642 54.028765
L 227.483742 72.324521
L 230.372762 75.594468
L 233.261782 78.607888
L 236.150802 81.322822
L 239.039823 83.704124
L 241.928843 85.723437
L 244.817863 87.358977
L 247.706883 88.595189
L 250.595903 89.422301
L 253.484923 89.835819
L 256.373943 89.836009
L 259.262963 89.42739
L 262.151983 88.618267
L 265.041003 87.420329
L 267.930024 85.848314
L 270.819044 83.919758
L 273.708064 81.654807
L 276.597084 79.076106
L 279.486104 76.208727
L 282.375124 73.080145
L 286.708654 67.963474
L 291.042184 62.437514
L 296.820225 54.64559
L 308.376305 38.829595
L 312.709835 33.266945
L 317.043365 28.136049
L 319.932385 25.025391
L 322.821406 22.208582
L 325.710426 19.721601
L 328.599446 17.596713
L 331.488466 15.861862
L 334.377486 14.540124
L 337.266506 13.649259
L 340.155526 13.201352
L 341.600036 13.145673
L 343.044546 13.202578
L 345.933566 13.653084
L 348.822587 14.547004
L 351.711607 15.872602
L 354.600627 17.612538
L 357.489647 19.744256
L 360.378667 22.240474
L 363.267687 25.069771
L 366.156707 28.197248
L 369.045727 31.585245
L 373.379257 37.06858
L 377.712788 42.910232
L 384.935338 53.067446
L 393.602398 65.219292
L 399.380438 72.89317
L 403.713968 78.281549
L 408.047499 83.288493
L 412.381029 87.873809
L 416.714559 92.014663
L 419.603579 94.524184
L 422.492599 96.834005
L 425.381619 98.947782
L 428.270639 100.871193
L 431.159659 102.611598
L 435.49319 104.898414
L 439.82672 106.826741
L 444.16025 108.433014
L 445.60476 108.903351
L 445.60476 108.903351
" clip-path="url(#pb3f62fa5b7)" style="fill: none; stroke: #0072b2; stroke-width: 1.5; stroke-linecap: square"/>
   </g>
   <g id="line2d_20">
    <path d="M 29.585865 71.15799
L 445.60476 71.15799
" clip-path="url(#pb3f62fa5b7)" style="fill: none; stroke-dasharray: 2.96,1.28; stroke-dashoffset: 0; stroke: #6b7280; stroke-width: 0.8"/>
   </g>
   <g id="patch_3">
    <path d="M 29.585865 226.19976
L 29.585865 3.00024
" style="fill: none; stroke: #000000; stroke-width: 0.8; stroke-linejoin: miter; stroke-linecap: square"/>
   </g>
   <g id="patch_4">
    <path d="M 29.585865 226.19976
L 445.60476 226.19976
" style="fill: none; stroke: #000000; stroke-width: 0.8; stroke-linejoin: miter; stroke-linecap: square"/>
   </g>
   <g id="legend_1">
    <g id="line2d_21">
     <path d="M 37.685865 15.87024
L 46.685865 15.87024
L 55.685865 15.87024
" style="fill: none; stroke-dasharray: 2.96,1.28; stroke-dashoffset: 0; stroke: #6b7280; stroke-width: 0.8"/>
    </g>
    <g id="text_21">
     <text style="font-size: 9px; font-family: 'Noto Sans SC', 'Arial', 'Helvetica', 'DejaVu Sans', sans-serif; text-anchor: start" x="62.885865" y="19.02024" transform="rotate(-0 62.885865 19.02024)">均匀到达基线</text>
    </g>
   </g>
  </g>
 </g>
 <defs>
  <clipPath id="pb3f62fa5b7">
   <rect x="29.585865" y="3.00024" width="416.018895" height="223.19952"/>
  </clipPath>
 </defs>
</svg>
